<mxfile host="app.diagrams.net" modified="2022-06-24T14:19:11.512Z" agent="5.0 (Windows NT 10.0; Win64; x64) AppleWebKit/537.36 (KHTML, like Gecko) Chrome/103.0.0.0 Safari/537.36" etag="BgWiBuRC2f5sh7OADBfA" version="20.0.3" type="github">
  <diagram id="age_vkiXSxT5GBCOWT0j" name="Page-1">
    <mxGraphModel dx="1422" dy="762" grid="1" gridSize="10" guides="1" tooltips="1" connect="1" arrows="1" fold="1" page="1" pageScale="1" pageWidth="827" pageHeight="1169" math="0" shadow="0">
      <root>
        <mxCell id="0" />
        <mxCell id="1" parent="0" />
        <mxCell id="ZUcRJ3GtSAAeoCR4MI1E-1" value="" style="shape=image;verticalLabelPosition=bottom;labelBackgroundColor=default;verticalAlign=top;aspect=fixed;imageAspect=0;image=data:image/jpeg,/9j/4AAQSkZJRgABAgAAAQABAAD/2wBDAAgGBgcGBQgHBwcJCQgKDBQNDAsLDBkSEw8UHRofHh0aHBwgJC4nICIsIxwcKDcpLDAxNDQ0Hyc5PTgyPC4zNDL/2wBDAQkJCQwLDBgNDRgyIRwhMjIyMjIyMjIyMjIyMjIyMjIyMjIyMjIyMjIyMjIyMjIyMjIyMjIyMjIyMjIyMjIyMjL/wAARCAPoA+gDASIAAhEBAxEB/8QAHwAAAQUBAQEBAQEAAAAAAAAAAAECAwQFBgcICQoL/8QAtRAAAgEDAwIEAwUFBAQAAAF9AQIDAAQRBRIhMUEGE1FhByJxFDKBkaEII0KxwRVS0fAkM2JyggkKFhcYGRolJicoKSo0NTY3ODk6Q0RFRkdISUpTVFVWV1hZWmNkZWZnaGlqc3R1dnd4eXqDhIWGh4iJipKTlJWWl5iZmqKjpKWmp6ipqrKztLW2t7i5usLDxMXGx8jJytLT1NXW19jZ2uHi4+Tl5ufo6erx8vP09fb3+Pn6/8QAHwEAAwEBAQEBAQEBAQAAAAAAAAECAwQFBgcICQoL/8QAtREAAgECBAQDBAcFBAQAAQJ3AAECAxEEBSExBhJBUQdhcRMiMoEIFEKRobHBCSMzUvAVYnLRChYkNOEl8RcYGRomJygpKjU2Nzg5OkNERUZHSElKU1RVVldYWVpjZGVmZ2hpanN0dXZ3eHl6goOEhYaHiImKkpOUlZaXmJmaoqOkpaanqKmqsrO0tba3uLm6wsPExcbHyMnK0tPU1dbX2Nna4uPk5ebn6Onq8vP09fb3+Pn6/9oADAMBAAIRAxEAPwD3+iiigAooooAKKKKACiiigAooooAKKKKACiiigAooooAKKKKACiiigAooooAKKKKACiiigAooooAKKKKACiiigAooooAKKKKACiiigAooooAKKKKACiiigAooooAKKKKACiiigAooooAKKKKACiiigAooooAKKKKACiiigAooooAKKKKACiiigAooooAKKKKACiiigAooooAKKKKACiiigAooooAKKKKACiiigAooooAKKKKACiiigAooooAKKKKACiiigAooooAKKKKACiiigAooooAKKKKACiiigAooooAKKKKACiiigAooooAKKKKACiiigAooooAKKKKACiiigAooooAKKKKACiiigAooooAKKKKACiiigAooooAKKKKACiiigAooooAKKKKACiiigAooooAKKKKACiiigAooooAKKKKACiiigAooooAKKKKACiiigAooooAKKKKACiiigAooooAKKKKACiiigAooooAKKKKACiiigAooooAKKKKACiiigAooooAKKKKACiiigAooooAKKKKACiiigAooooAKKKKACiiigAooooAKKKKACiiigAooooAKKKKACiiigAooooAKKKKACiiigAooooAKKKKACiiigAooooAKKKKACiiigAooooAKKKKACiiigAooooAKKKKACiiigAooooAKKKKACiiigAooooAKKKKACiiigAooooAKKKKACiiigAooooAKKKKACiiigAooooAKKKKACiiigAooooAKKKKACiiigAooooAKKKKACiiigAooooAKKKKACiiigAooooAKKKKACiiigAooooAKKKKACiiigAooooAKKKKACiiigAooooAKKKKACiiigAooooAKKKKACiiigAooooAKKKKACiiigAooooAKKKKACiiigAooooAKKKKACiiigAooooAKKKKACiiigAooooAKKKKACiiigAooooAKKKKACiiigAooooAKKKKACiiigAooooAKKKKACiiigAooooAKKKKACiiigAooooAKKKKACiiigAooooAKKKKACiiigAooooAKKKKACiiigAooooAKKKKACiiigAooooAKKKKACiiigAooooAKKKKACiiigAooooAKKKKACiiigAooooAKKKKACiiigAooooAKKKKACiiigAooooAKKKKACiiigAooooAKKKKACiiigAooooAKKKKACiiigAooooAKKKKACiiigAooooAKKKKACiiigAooooAKKKKACiiigAooooAKKKKACiiigAooooAKKKKACiiigAooooAKKKKACiiigAooooAKKKKACiiigAooooAKKKKACiiigAooooAKKKKACiiigAooooAKKKKACiiigAooooAKKKKACiiigAooooAKKKKACiiigAooooAKKKKACiiigAooooAKKKKACiiigAooooAKKKKACiiigAooooAKKKKACiiigAooooAKKKKACiiigAooooAKKKKACiiigAooooAKKKKACiiigAooooAKKKKACiiigAooooAKKKKACiiigAooooAKKKKACiiigAooooAKKKKACiiigAooooAKKKKACiiigAooooAKKKKACiiigAooooAKKKKACiiigAooooAKKKKACiiigAooooAKKKKACiiigAooooAKKKKACiiigAooooAKKKKACiiigAooooAKKKKACiiigAooooAKKKKACiiigAooooAKKKKACiiigAooooAKKKKACiiigAooooAKKKKACiiigAooooAKKKKACiiigAooooAKKKKACiiigAooooAKKKKACiiigAooooAKKKKACiiigAooooAKKKKACiiigAooooAKKKKACiiigAooooAKKKKACiiigAooooAKKKKACiiigAooooAKKKKACiiigAooooAKKKKACiiigAooooAKKKKACiiigAooooAKKKKACiiigAooooAKKKKACiiigAooooAKKKKACiiigAooooAKKKKACiiigAooooAKKKKACiiigAooooAKKKKACiiigAooooAKKKKACiiigAooooAKKKKACiiigAooooAKKKKACiiigAooooAKKKKACiiigAooooAKKKKACiiigAooooAKKKKACiiigAooooAKKKKACiiigAooooAKKKKACiiigAooooAKKKKACiiigAooooAKKKKACiiigAooooAKKKKACiiigAooooAKKKKACiiigAooooAKKKKACiiigAooooAKKKKACiiigAooooAKKKKACiiigAooooAKKKKACiiigAooooAKKKKACiiigAooooAKKKKACiiigAooooAKKKKACiiigAooooAKKKKACiiigAooooAKKKKACiiigAooooAKKKKACiiigAooooAKKKKACiiigAooooAKKKKACiiigAooooAKKKKACiiigAooooAKKKKACiiigAooooAKKKKACiiigAooooAKKKKACiiigAooooAKKKKACiiigAooooAKKKKACiiigAooooAKKKKACiiigAooooAKKKKACiiigAooooAKKKKACiiigAooooAKKKKACiiigAooooAKKKKACiiigAooooAKKKKACiiigAooooAKKKKACiiigAooooAKKKKACiiigAooooAKKKKACiiigAooooAKKKKACiiigAooooAKKKKACiiigAooooAKKKKACiiigAooooAKKKKACiiigAooooAKKKKACiiigAooooAKKKKACiiigAooooAKKKKACiiigAooooAKKKKACiiigAooooAKKKKACiiigAooooAKKKKACiiigAooooAKKKKACiiigAooooAKKKKACiiigAooooAKKKKACiiigAooooAKKKKACiiigAooooAKKKKACiiigAooooAKKKKACiiigAooooAKKKKACiiigAooooAKKKKACiiigAooooAKKKKACiiigAooooAKKKKACiiigAooooAKKKKACiiigAooooAKKKKACiiigAooooAKKKKACiiigAooooAKKKKACiiigAooooAKKKKACiiigAooooAKKKKACiiigAooooAKKKKACiiigAooooAKKKKACiiigAooooAKKKKACiiigAooooAKKKKACiiigAooooAKKKKACiiigAooooAKKKKACiiigAooooAKKKKACiiigAooooAKKKKACiiigAooooAKKKKACiiigAooooAKKKKACiiigAooooAKKKKACiiigAooooAKKKKACiiigAooooAKKKKACiiigAooooAKKKKACiiigAooooAKKKKACiiigAooooAKKKKACiiigAooooAKKKKACiiigAooooAKKKKACiiigAooooAKKKKACiiigAooooAKKKKACiiigAooooAKKKKACiiigAooooAKKKKACiiigAooooAKKKKACiiigAooooAKKKKACiiigAooooAKKKKACiiigAooooAKKKKACiiigAooooAKKKKACiiigAooooAKKKKACiiigAooooAKKKKACiiigAooooAKKKKACiiigAooooAKKKKACiiigAooooAKKKKACiiigAooooAKKKKACiiigAooooAKKKKACiiigAooooAKKKKACiiigAooooAKKKKACiiigAooooAKKKKACiiigAooooAKKKKACiiigAooooAKKKKACiiigAooooAKKKKACiiigAooooAKKKKACiiigAooooAKKKKACiiigAooooAKKKKACiiigAooooAKKKKACiiigAooooAKKKKACiiigAooooAKKKKACiiigAooooAKKKKACiiigAooooAKKKKACiiigAooooAKKKKACiiigAooooAKKKKACiiigAooooAKKKKACiiigAooooAKKKKACiiigAooooAKKKKACiiigAooooAKKKKACiiigAooooAKKKKACiiigAooooAKKKKACiiigAooooAKKKKACiiigAooooAKKKKACiiigAooooAKKKKACiiigAooooAKKKKACiiigAooooAKKKKACiiigAooooAKKKKACiiigAooooAKKKKACiiigAooooAKKKKACiiigAooooAKKKKACiiigAooooAKKKKACiiigAooooAKKKKACiiigAooooAKKKKACiiigAooooAKKKKACiiigAooooAKKKKACiiigAooooAKKKKACiiigAooooAKKKKACiiigAooooAKKKKACiiigAooooAKKKKACiiigAooooAKKKKACiiigAooooAKKKKACiiigAooooAKKKKACiiigAooooAKKKKACiiigAooooAKKKKACiiigAooooAKKKKACiiigAooooAKKKKACiiigAooooAKKKKACiiigAooooAKKKKACiiigAooooAKKKKACiiigAooooAKKKKACiiigAooooAKKKKACiiigAooooAKKKKACiiigAooooAKKKKACiiigAooooAKKKKACiiigAooooAKKKKACiiigAooooAKKKKACiiigAooooAKKKKACiiigAooooAKKKKACiiigAooooAKKKKACiiigAooooAKKKKACiiigAooooAKKKKACiiigAooooAKKKKACiiigAooooAKKKKACiiigAooooAKKKKACiiigAooooAKKKKACiiigAooooAKKKKACiiigAooooAKKKKACiiigAooooAKKKKACiiigAooooAKKKKACiiigAooooAKKKKACiiigAooooAKKKKACiiigAooooAKKKKACiiigAooooAKKKKACiiigAooooAKKKKACiiigAooooAKKKKACiiigAooooAKKKKACiiigAooooAKKKKACiiigAooooAKKKKACiiigAooooAKKKKACiiigAooooAKKKKACiiigAooooAKKKKACiiigAooooAKKKKACiiigAooooAKKKKACiiigAooooAKKKKACiiigAooooAKKKKACiiigAooooAKKKKACiiigAooooAKKKKACiiigAooooAKKKKACiiigAooooAKKKKACiiigAooooAKKKKACiiigAooooAKKKKACiiigAooooAKKKKACiiigAooooAKKKKACiiigAooooAKKKKACiiigAooooAKKKKACiiigAooooAKKKKACiiigAooooAKKKKACiiigAooooAKKKKACiiigAooooAKKKKACiiigAooooAKKKKACiiigAooooAKKKKACiiigAooooAKKKKACiiigAooooAKKKKACiiigAooooAKKKKACiiigAooooAKKKKACiiigAooooAKKKKACiiigAooooAKKKKACiiigAooooAKKKKACiiigAooooAKKKKACiiigAooooAKKKKACiiigAooooAKKKKACiiigAooooAKKKKACiiigAooooAKKKKACiiigAooooAKKKKACiiigAooooAKKKKACiiigAooooAKKKKACiiigAooooAKKKKACiiigAooooAKKKKACiiigAooooAKKKKACiiigAooooAKKKKACiiigAooooAKKKKACiiigAooooAKKKKACiiigAooooAKKKKACiiigAooooAKKKKACiiigAooooAKKKKACiiigAooooAKKKKACiiigAooooAKKKKACiiigAooooAKKKKACiiigAooooAKKKKACiiigAooooAKKKKACiiigAooooAKKKKACiiigAooooAKKKKACiiigAooooAKKKKACiiigAooooAKKKKACiiigAooooAKKKKACiiigAooooAKKKKACiiigAooooAKKKKACiiigAooooAKKKKACiiigAooooAKKKKACiiigAooooAKKKKACiiigAooooAKKKKACiiigAooooAKKKKACiiigAooooAKKKKACiiigAooooAKKKKACiiigAooooAKKKKACiiigAooooAKKKKACiiigAooooAKKKKACiiigAooooAKKKKACiiigAooooAKKKKACiiigAooooAKKKKACiiigAooooAKKKKACiiigAooooAKKKKACiiigAooooAKKKKACiiigAooooAKKKKACiiigAooooAKKKKACiiigAooooAKKKKACiiigAooooAKKKKACiiigAooooAKKKKACiiigAooooAKKKKACiiigAooooAKKKKACiiigAooooAKKKKACiiigAooooAKKKKACiiigAooooAKKKKACiiigAooooAKKKKACiiigAooooAKKKKACiiigAooooAKKKKACiiigAooooAKKKKACiiigAooooAKKKKACiiigAooooAKKKKACiiigAooooAKKKKACiiigAooooAKKKKACiiigAooooAKKKKACiiigAooooAKKKKACiiigAooooAKKKKACiiigAooooAKKKKACiiigAooooAKKKKACiiigAooooAKKKKACiiigAooooAKKKKACiiigAooooAKKKKACiiigAooooAKKKKACiiigAooooAKKKKACiiigAooooAKKKKACiiigAooooAKKKKACiiigAooooAKKKKACiiigAooooAKKKKACiiigAooooAKKKKACiiigAooooAKKKKACiiigAooooAKKKKACiiigAooooAKKKKACiiigAooooAKKKKACiiigAooooAKKKKACiiigAooooAKKKKACiiigAooooAKKKKACiqT6lGHKopYjv0FRG/mJ4Cj8KLhY0qKzRezeq/lTvtk3+z+VK47GhRWf9rl/wBn8qX7XL/s/lTCxforP+1zf7P5UfbJv9n8qBWNCis77bN6r+VJ9tl/2fyouOxpUVmi9mP938qd9rl/2fyouFjQoqh9rl/2fyo+1y/7P5UBYv0Vn/a5v9n8qPtkv+z+VArGhRWd9tm/2fyo+2Tf7P5UXHY0aKz/ALZN/s/lS/a5f9n8qAsX6Kofa5f9n8qPtcvt+VAWL9FUPtcv+z+VIbyb/Z/KgLGhRWd9sl/2fypftkv+z+VAWNCiqH2uX/Z/Kj7XL/s/lQKxfoqh9rl9vyo+1y/7P5UDsX6Kofa5f9n8qT7ZL/s/lQFjQorPF5L/ALP5Uv2uX/Z/KgVi/RVD7XL/ALP5Uv2qX/Z/KgC9RVH7VL/s/lSfapf9n8qB2L9FUPtcv+z+VH2uX/Z/KgVi/RVD7XL/ALP5Uv2qX/Z/Kgdi9RVH7VL6r+VH2qX/AGfyoCxeoqj9ql/2fyo+1y+35UCsXqKofa5f9n8qPtcv+z+VAF+iqP2uX/Z/Kj7VL7flQFi9RVH7VL6r+VH2qX2/KgLF6iqP2qX2/Kk+1y/7P5UAX6Kofa5f9n8qUXcv+z+VA7F6iqP2qX/Z/Kl+1S+35UBYu0VS+1S+35Un2qX2/KgReoqj9ql/2fypPtcv+z+VAF+iqP2uX/Z/Kj7VL7flQBeoql9ql9vyo+1S+35UAXaKpfapPb8qT7VL7flQBeoqh9rl9vyo+1y/7P5UAX6Ko/apfb8qX7VL7flQBdoql9ql/wBn8qPtUvt+VAF2iqP2qX2/Kj7XL/s/lQBeoqh9rl/2fypftUv+z+VAF6iqP2qX2/Kl+1S+35UAXaKpfapfb8qT7VL/ALP5UAXqKo/apf8AZ/Kk+1y/7P5UAX6Koi6l9vyo+1S+35UAXqKo/apf9n8qPtUvt+VAF6iqP2qX2/Kj7VL7flQBeoqgbuX/AGfyoF3L/s/lQBfoqj9ql/2fyo+1S+35UAXqKo/apc44/Kj7VL7flQBeoqj9ql9vypPtcvt+VAF+iqH2uX/Z/Kl+1y/7P5UAXqKo/apf9n8qPtUvt+VAF6iqX2qX/Z/Kk+1S/wCz+VAF6iqX2qX2/Kj7VL7flQBdoql9pl9vypDdSj0/KgC9RVL7VL7flR9ql9vyoAu0VR+1S+35Uhu5f9n8qAL9FZ32yX/Z/Kp4LsOdsmA3Y9jQBaooooAKKKKACiiigAooooAKKKKACqeo3HkwBF+9JwPp3q5WVq/34PxoBFKLqazNR8RQWF5HaBd8zsFxnua1IuteezMLr4obCMrCjyAe4GB/Okij0hXIA9aXzDTB0FFXYkeZGppdvWkpppgPWRt3Wk8/OQANw6AnANNHUVUkfDn60rAZereMLfRpxFf2s0LN9wt91vo3Q0ujeLrXXL021rE2Qu523ZCin6xFb6hpFxZ3kSywOpyrdj2I9CPWuW+FdvHHo8soGZJLp1Zz1IXgUNDuek78HgD8qXzT6D8qi70UWESeafQUhlPtTKQ0WAlEvBJHSopbkpGXSJpABkhOT+VIfuN9KpeYVOQaLAZzeN9KWRkMhDocMp4IPuDWvpWqwarbtcQAmIHaCe571558ULSCXSodRQCO+EqxGRRjerdm9cdq7nQLSKw0uKzgXEcKBF/qfqTk0raj6Gx5n+yKXzP9kVFRTsIkMvsKaZTTDSUWAlMyjGe9Zt/r1rprAXYaLd90t0b6GrFwcKtUrgQ3VrJbXUSTW7jDRuMg/wCH1osBXHjHSy2PM/UVuxTiWJZAuNwzg14lo2kwxfEqTTS7S2tqzyoHOSQFBUH1wSPyr2m3/wCPdPpSsNlgP7CjzPYVHRTsIeZD6UgkOaaaTvRYBzzgbgFLEdh1NZMvifTYnZHlw6nDKeCPqKszuRM31rjvH+l21/oVxqG0RX1qm9Zl4LqOqt6j+VHKNHW2Wv2V/KY7Zi7gZI9K09+O1effDa3SPw5bXHWa5dnkc9Tg4A+gArvj1oSBkgf2FHmewqOlosIcZD7Uvm8HI6c1Gaa3+rf6UWAbc6hBaRebMSsf9/sPr6VR/wCEl0wH/Xj604uCrIwDIwwysMgj0IrzgeHLSP4lC1Rm/s8W5vBbZ4DAgBf93POPwo5Ro9YguUniEiZKkZGe9SCQelU7M5hJ96nFFhE3mD0/Wk8wf3aZSUWAk83npSPOqg5BOBnjrUdVrlysoIPYUWAY+vaeh5nWnQ61ZXEgSKXc56Ada8++I+mxJpx1q1byLqNgswXhZlPGSOzD171e8A2CwaBa6hIxku76MSs5/gUnhR+HX1NKwz0LzFAHFKJF9D+dQ+n0op2ETGRT6ijzR6VFSUWQEwkBBqrPqNtbMFlkCE8jPepOx+lZF9a22pWj2l5Hvhb0OGU+qnsaLAXBrmnk4+0LV6OdJF3LyOteQeEdJceMtVtr2driPS2AiDH5XYk7WI9gOnrXqtocwknuaSQ2XBL7Cl80elRClp2ESeYPSk8znpTKbRZAPluI4lZmyAoyT6CqLa3YKeZx+HNOuXKTAj0ryX4hWjaVq1pLpztEl9kNED8qPkDIHYHPSiw0evwala3JIik3kDJA7Va8wDtXO6Np0Ok2sVnDltuPMkblpG7sT/TtW6eposImEg9DR5g9KhFLRYCUyD0pDIu3NRUyU4hf6UWAZJqlpExV5QpHBB6impq9k5wJ1JPArlPGWmDUNFuLuBzFf2sZkR1ON6jkq3rx09Kxvh3aGfSv7aunaSeSV44FY8RqpwTj1Jz+FKwz1ASqVyKXzB6VVhP7lakp2ET+YvoaPMX0qGg0WQEwkBPSoZryCAAySBQeATQOtZ15DDdRzW1zGJIZOGXOPxB7H3osBZGr2JOPPXNWYbqGcZjcMPUdK8c0TRbq88a6hpdxdzGx05i0jBsNKCfkXPv3Pt716tZBECxxqEjQYVVHAFKw2aPmL70vmL71BS07IRPvX3pPMX3qKkosgHyzRxJvdsL3J7VVOq2QODOv50XRGwAgEHIIPQivJPEukXlp4wsdNsLt0ttSIMRZs+Tzhx746j60rDR7DFe282RHIHI5OO1TGRR2zWHp9rb6fbpa2qlYkHVjlnPqx7mtc07CJvMX0NHmL6Goc0tFkBL5i+hpDIoGfSo6ZJ/qn+lFkBHJqdnGxDTKCOCCaE1OzfpOhzwOa4D4jWpTSF1a3doriJ1STaeJFPTPuPWrfgnSha6LbaldM019dIJAzHIiQ9AB646mlYZ34kUjIoEi+hqrAcxH61JTsIn3qfWjevvUIpaLICXcp9arz31vbtiWQKfen55rB8SaYmr2NxamRopcFoZVPKPjj8OxFFgNMazYFsfaEzVqG6hnTfE4dfUdK8W+H+ly+Ibq5utTmkNpaMqeSGx5sh5wT/dA/PNet27D5UUBUXhVUYAHoBRYZpmRQcYNAlX0NQnqaKLIRP5i+ho8xfQ1DmlzRZBcl8xfQ0u9feoaWiyAl8xfejzF96ioosguS7196N6+9RUUWQEu9fQ/nTGddpODTaa/3G+lFkBDBfW9y5SKQFh1FT1wkqvp3xG00RORBqQZnTsHUYOPrxXdGoYzWtpPNgU9xwalqpYf6p/97/2UVbpiCiiigAooooAKKKKACiiigArL1f78P41qVmat96L8aGCKMXWvN7BvM+J16fSGT/0Ja9IirzTQj5nxG1JvSF//AENaSKPT6WkozWhIUhozSUAA6is+Y/OfrWgPvCs2f77fWhAUNRYiymPohrF+GUezw+nvcSn9a1tWO3TLg/7B/lWd8OB/xT0B9ZJD+tNgjtu9LSUtIApKKSgBG+430rMkPNabf6t/pWVJ1poDjviDGbjSLaLOCblD+Vd7pv8Aqn+tcF45fFrZKO84rvdN/wBS/wBaHuBdpaSjNIANNpSaSgCC6PyLWc5rRu/uLWa/Q00BwWj25PxQ1G5zlTE4+hwor1WD/j3T6V5roQ3eN9Sb0V/5rXpUP+oT6UuoEgpc0lGaAA0nejNJ3oAo3R/fN9a5rxaC/hm/QH70RFdHdn9831rmvFpx4cu/90D9apAS+BIDbeG9NhbOVU9Rj+I12XeuV8HLjRNOz/zz/qa6qoAUUUmaKYAaY/8Aq3+lOpsn+qf6UAZbnmuWjQt8RpZc8DTtv/j4rp361y9s2fiJdDsLEf8AoQqugHc2f+o/GrAqvZ/6j8anFSA+kNGaKAEqlenEg+lXTVC+/wBYPpQgOM8fI0/hiaJeS7qAPxrS8IxmHwvpERPKWqL+lUfGJI0YY6+auPzrT8NknRNOJ6+Suab3DodX6UopKAaQDqaaKKAEPQ/SslzzWseh+lZEn3qaA5Pw9A6eMfEtwSCkskYGDyMA5zXeWX+oP1rhvD5J8U+IBngSLj9a7mz/ANQfrQBZFLTRS5pALTTTiabQBSvTiUfSvN/iDCbjUdEAYAJIWORnPzLXo1//AK38K4Txc5TVNM7ghgfpuHH8qfQEdxD/AMfH41pHqazbf/j4H1rSPWhgKKWkzRmkAGo5v9Q/0qSo5/8AUP8ASgDndZJOj3wHU28g/wDHTWL8P0aLwbaRsMMssuR/wM1sayxXSb0gkEQsQfwrN8GMT4bjJyW8+QnPrupgdpB/qFqUVFb/AOoWpRSAdRSZoNIBB1rOuDiV/rWj3rMuv9a/1poDj/D8M0fjrxHM8bLHME2ORw2D2NdvZff/ADrjdHkY+MtXRidoT5RnjqK7Gy+/+dPoBdpwptKDSAdTTS5pCaAK17/q1+tcF4kilfxn4ZuFUmOF3Dt6ZPFd5ff6pfrXD+IGK+I9GIbHzcj1+YUwOui+/WnWXF9+tT0+lDEKKdTBTqQwpkn+qf6U7NNf/Vv9DQBxHjmCS78LXMEYBdnTA/Gr/hzP/CMaWD1W2RT9QMVW8V/8gOb/AH1/nVnw6xPh2xz18oUwOjtv9UfrU1Q23+qNTUgHUUmaM0AFZ16cTtWjWZf/AOvb8KEB5/8ADGNoLTVYz3ugw/L/AOtXoVt94fWuG8EMRPfp2yp6e5ruLf73401sI0j1pKU9aTNAC0UlLQAtFJS5pALRSUUwFopKM0gFpG5U/Sig9KAOG13KeNfCco6efKh/ECu5IxXDeJvk8ReE5PS/ZfzUV3J6moZRo2Q/cZ9T/QVZqvZf8e4+pqxQIKKKKACiiigAooooAKKKKACszVv+WX41p1mat/yy/GhjRRj6GvMvC53eOtVfsIj/AOjFr0xThGPsa8w8LH/io9al/wCmQH/kT/61JDPU6DXNJrtxFhWRXA7nrVhfEJPWD8jWhJuUlY/9vD/nifzpp1wnpD+ZoA2xwc1mTcuaoyavPIMAKoPpU0E3mpz1poClrZxpNz/1zP8AKqXw5GPDlqfVpD+pq5r/ABo10f8Apmf5Vn+CGaDwfZSL1yx/8eNDBHc0VjjWwvDxH6g1INdt+6uKQGnmisz+3LX0f8qadbg7I5oA03OI2+lZb9aifV2lIVU2qetSbg4DCmgOL8eH/kGr6z16Dp3+pf615/45GZtMXHW4HP5V2q3ZtB93IPJFD3A16KzF1uA/eRxTv7ate5b8qQGhRWadbtf9o/hTG1uL+GNj9aALt39xaz26GmLqDXEnzDA7CpGHBpoDjfD4/wCKw1U+zZ+u5a9Ji/1KfSvO/Di58Vasc+v/AKEK6z+05LY7doZe1IDbpKyBrqfxRN+Bp39uwf8APN6LAappB1rJOuw9o3qN9bYjCRY9yaALV1zK31rmfF//ACLtwPXH8xW5FP5y5P3qw/F+BoE2fVf51SEaXhVQukacO3lD+tdNXL6KTDoFkw4YQrVwa1Ihw8YbHcGpWwzcpM1kDXo/4oW/Ol/t6H/nm9FgNamSnEL/AErLOup/DE34moW1Z5mC7Aq+1AErda5Sw5+ImoH0s1H6ius4YZFcppoz4/1P2tlH6iq6Ad3af6j8asVkNfm0bbt3L6U5dch/ijYVIGrRWaNbte+8fhQdbte2/wDKgDRqjff638BUDa3F/DGxPvxUa3JuSWbg00BzfjH/AJBCj1mWtTw6MaLp/wD1xFZni9c6Umf+eq1q6AMaHYkdBAtD3DodPS1mLq0S/LICD6ipRq1of+WmPqKQF6kqn/atn/z2H5U06taD/lpn6CgC8T8p+lY7/eqSXV4mG2NWJPc1HncAw700By/h0D/hJ/EJ/wCmq/1rubP/AFB+tcT4dH/FReID/wBNl/rXStetaHAAYdxQBs0ZrJXXIv4o2H0p/wDblt3D/lSA06KzDrlt2Vz+FMbXI/4ImP1NMCe95l/CuE8XDOp6d/n+IV2C3Jucs3WuT8VrnVNO6df/AGYUPYOp2kH/AB8D61pHrWVu8sM/cdKVdZjHEiEH1FDA1KKzxrFp3Zh+FO/taz/56/pSAvVHP/x7v9KqNrFoOjMfoKry6qk2ERSFPUmgDN1v/kD3v/XFv5Vn+Dhjw+n/AF2f+YrR1v8A5A17/wBcW/lVDwgD/Yaj/ps/T8KfUDsrf/ULUtZI1IWxKMpZfapV1q1P3i4/CkBo0VQ/tiz/AOeh/Kj+2LP++T+FIC/WZdf61/rQ+tQjOxWY9s8VCJfPUuep61SA5fSBjxvq3vH/AFFdpZff/OuQ0pceNdVP/TP/AOJrqRN9mUPj8KOgjToqgmrWrfeYqfcVKNRtD/y3WkMtZpaq/wBoWg/5bLTG1S0X/lrn6CgB99/ql+tcJ4kB/t3RyMcP3/3xXXyXyXTbUBCjpmuT8TD/AIm+kHp+8/8AZlp9AOtj++K1Ow+lZSnaSx6ChdXRPlkU8dxQxGrRWeNYtD1Zh+FO/tez/wCev6Uhl+mv9xvoaoHWbQdGY/hUMmsJJ8kaEZ6k0CMXxT/yArj6r/OpfDf/ACL9njoEx+ppniYbtBuSP9k/+PCn+Gl/4p+zH+yf5mq6jOktv9UamrMN8LVtpGV709dYtT1LL+FIDRzRVL+1bP8A56/pQdWsx/y1z9BSAvVmX/8Arz+FK2s2w+7ub8Krmf7Sd5HU00Bx3g041G9XGPkH4/Ma7iD7341w3hEY1e8H+yf/AEM124by4y9C2E9zUPWisr+2Y14dGz3xSjW7burj8KANSis4azanu35U8atan+I/lQBeoqn/AGpbf3z+VH9p2398/lQBdFFUv7Ttv75/Kj+1bX+8fyoAvUlUDq1uP735Uw6xAOiuaQGnRmsltaQdImNRvrTsCEiAJ7k0DMDxf8t/4ak/u6qo/MGu5P3j9a4Xxad1los3dNVgP55Fd0eHb6moYzRsf+Pf8TVmq1j/AMe//AjVmgQUUUUAFFFFABRRRQAUUUUAFZmrf8svxrTrM1b/AJZfjSY0ZxOIHP8Asn+VeY+E+dR1p+52D/x5q9MmOLOY+iN/KvKfDl0bbU71SrMJyqYHXO44oQzqiBu5p6qta8fhtnQNLd7HIyVVMgfjTv8AhGiOl+fxi/8Ar1rdEmSFWnhFrS/4RuTtfL+MX/16b/wjk+f+P+P/AL9n/Gi6AoiNaniXacirI8Pzr/y/Rn/tmf8AGpk0eVOt0p/4Af8AGi6AyNfOdEuj/wBMz/KqnhCMDwXYD1Vj/wCPGtzUdAkvrOS3W8WPepUny8/1pukeHTpejw6eb3zRFnD+XjgnPTNDYGdKgFV2C5rauNAmeNjDeKXAyA6YB/EVxWsX9zob41G3khQn5ZcZjb6MOPzp6AbPy1IgU1xZ8a6apw10gP8AvVseH9U/4SO++yaa6yuBukfPyxr6sf8AOaAOkSNTV2D5eO1SR+Hp063yE/8AXM/41aTSZFHNyh/4AaLoDhPGwzfaSP8ApuP5iuwu4wRVHWvB9zq11ayjUIY1gfdgxEk8g+vtW1Npzy9bhR/wClfUDBeMCoSBWjfaJfJGZLaSOfHVPuN+GeDXH3mux2NwYLwPbzDrHKpU/rVbgbwAqdFU1yg8UWf/AD3X866jQ7K61izW8V1gtm/1bOCTJ7genvSAtRxjPFXV5Tmnx6JOv/L3Gf8AgBqx/Zku3Anjz/umi6A43wzH/wAVNrDdv/r1vXCDcaTSPC9zpupXt3JfQyC5/hWMjbzmtGXSXkJxcqD/ALh/xpJoDEdVBqLApmsRX2kq0k8DPAOssQLKPr3Fc4fFdh/z8p+dUB1CquamVFNc5putJql5HaWTCaeQ8Kp6D1PoPeu3i0DYo8y8Yv32oMfhSugKsK7TkVkeMf8AkASY7sv866pNICf8vJP1T/69U9Y8M/2tYm2N75akg58vPQ/Wi6AracgGhWQ/6Yr/ACqCSMA1s22j/Z7GG2a6L+WgTdsxnH41XutElaJmt7kNIBnbIuAfxFJMDGYDNN4z2rD1PW10q5NvqCtbS9llGMj1B6EfSqY8WaeT/wAfMf8A30KoDrUVTVhI1NY3h+eXxDK4sSpij/1kx+4vt7n2rqE0OdP+XuM/8AP+NLQBkXC4rnNGG7x7qp9IE/nXXrpcqr/r48/7prL0/wAMXVlr95qT3sDrcIF2BGyMe9JtASXSAtzVF0Arcl0t5Cf9JUf8ANYuqafqFlGZo4/tUQGSYRlh/wAB6/lmnoBAQKFArnD4ltNxXzgGBwQeCD9KeviO16+aKAOnWNTVmFNpyKNO0i8ubZJ5nW3DjKoyktj1I7Vox6RIn/Lyh/4AaLoDl/GA/wCJUmO8q1raKmPD9n/1xX+VS6z4an1S1WFLuGPDBsshNXbPSZLXT4LU3CExIE3BTzil1AyZoxuJqqygGtufRZ3UmK5jLdgykA/jXI6nfyaVceTfI0Dn7u7o30PQ00BoYFSKoNc5/wAJFbZ/1y/nWnpN3LrNwYbBfNZeXbOFQf7R7UAa6RCrsPC4NEejX69ZbY/Rj/hVpNNu1Xkw5/3/AP61F0BzHh0D/hIte/67Ln9a2blMtUGkeHtUsdX1K6mNp5V24ddspJGPXitKXS7tycPAPqx/wpXQGO6AVCQKbrbXGir5t7HtgPSZTlPxPb8awj4lszyJlI9jVAdCiip1jFcwniS0yP3o5OB7111jpWoXFuk7+XAHGVSXO7HuO1IB8K7SCK5zxSB/a+mfKTk4GO3zCuvj0q7XrJAfox/wrJ1bwxqd/qFrPG9oI4OfmkbJ5B9Pak3oBrTr+6xWXJGM1tyWNzIv34Qe/wAx/wAKoXOkXwjZomhlYc7FYgn6Z4p6CMtlApuBWTc61FbTvBcMYpk+9HINrD8DUI1+2J/1y/nTsM6BEBqdIgDxWbpE02sSsliokCffcnCJ9T/SugTR7xeslufox/wpAUdVBbRLsd/Jb+VU/CC40Q5HImf+lbd7o95cWE0CGDfIhUbnIH8qg0PQr/TbBredrYkuWBRyev4Ur6gQ3EeXNVGQCtqXSLp84lgH1J/wrm9akuNEYG+TZG3CzLyjfj2PsaNAJiBmnooJrnj4jtM/65fzqa21yK5nSC3Jmmc4WOMbmb6CnYDokjBq5ANox2ot9Fv/AC1aaSGJiM7CSxH1I4q4ml3Cj/Wwn8T/AIUXQjl9LT/iutV44MS/+y10N4uRiq9j4dv7fxBd6jJLamOZAgVWbI6dePatOXTZ5D/rYh+dK6AwXjAqBlGa0dQ0q+t4Gmj2XCryyx53AeuD1rlm1u3Of3q+nWmM2ABmpkjBrAGuW2f9av51s6SLrVlL2ce6EdZWO1Pz7/hQBfgTaQRWL4m41PST6yEf+PLXTxaVer94wH6P/wDWrN1rw5qd/c2ckC22IWJbdNjuD6e1JtAajj9zj1rNkjGTWy1jdtGBiIHv8/8A9aqcuj37Z2tbfQyH/CnoIyXUCmYFUNS1E6ZdNbXymCYchX7j1B6EfSqP/CQWuf8AXL+dOwHQogNTJEMisvR7mXWZzDYL5u3779ET6n+nWumTRJ163URP+4aQGTroz4fufYL/AOhCpfDA/wCJDbH0U/zNX9R0K4vNNmtY7iFWkAG5gcDnNP0nQ7jT9OjtZLiFymRuUHnmlfUCrcpuYk1RlQjpjHet2TSJXP8Ax8xj/gJNc/rkVzo0fnXGGtj/AMtkBwp9G9P5U9AGcd6eoBrAPiC1/wCey/nT4ddgkkWNJA7scKq8kn2HenYZ0SxirkC7eO1Ms9I1CWJZZRHBnokh+b8QOlX00y6UffhJ/wB4j+lLQRx3hhCNavDnsRg9fvH/AArrrkfJgVl6R4Z1Sw1GWaRrQxyH+GU56k+nvW3Lp104wphH1f8A+tSWw2YckYGarMAK07zSdSiheVI4pgoyUjfLH6AjmuMm8SWSsQbhARwQWwRT0EdAuKnQCuRHiuwB4uEP0NSp4tstwUTAseAByT+FMDrwBTtorLhl1OaJZI9I1FkbkN9nIz+fNOM+op9/SdRH/bsx/kKNANLaKTaKzPt90Oum6gP+3ST/AApv9pzDrY3w+trJ/hRoBrbBRsFZP9rP3tLwf9uz/wCFOGqt/wA+13/4Dv8A4UgNXYKQxis9dSJ/5d7n/vw/+FS/bjjJguAPeFv8KBlXxU2NAtj/AM89StW/8fru2Pzt9a8o8Ua5Fc2lvZW537ryIuw6KVbOD716vkFuOlZMZo2H/Huf96rVVbD/AI9z/vGrVAgooooAKKKKACiiigAooooAKzNW/wCWX41p1mat/wAsvxpMaMq7O3Trg/8ATNv5V574JtEmvLu8cbtkqog9DySf5V3+oHGk3R/6ZN/KuN8BpiwlP967b+S0IZ6GDgCikozVki0lFFAAaSikoAKSg0UwDPyt9Kx7oCWJ43UOjDDKwyD+Fa5+430rJl70IDxXx/4cs9LmS8sYlhWVtrRAfLnsR6fSvV/AWiW2haMkECDzHUPNJj5pH9T7egriPidHmysx/euFH616hoy7YseiihrUDUopKWgBDTTTjTTQBHMcQNWBrFjaatZtb39tFcxEdJFzj6HqK35/9Q1ZMwyppoDx7R/BtgfiBNYzAy2VqguBG38WThVb2H617xbcW0YAAAGAAMACvMNIT/i5mr+1nGP/AB6vT7f/AI90+lJqzAlFLQKKAEpuadTaAKt07LL8pxxXl/xB8K6bcWFxqkFtHBdxDe7RrgSDvkevvXp15/rfwrkvGibvC2pf9cGqkrgV/hlotrpmiWlzFGv2m8QSyy45IPIX6CvRO9cl4LTZ4e0celpF/wCgiuu71IC0UUUANNNb7jfQ0401v9W/0oA53VrG11Sxa1v7eO4hP8Mi5x7j0NeH33haGDxpFo0TnyZpF2sfvKh6j6jBr3mYZU15jfW+/wCLFi2cbdv48Gm1oCPUvDtjbaZpqWdnCsNvEoCoo/U+pPrWuDVHTeImq8KQC0hpaQ0ANNQXRKxqQSDmrBqtef6taAOD8c+G9P1nTp7mSBEvo0LJcKMNx2bHUfWuZ+Fnh+0lVtanjEs6SmOANyI8dWA9f5V6BrozpF3/ANcm/lXPfDCHyvCUOcfNNIf1ptAemIT5a/SnimL/AKtfpThSAWkNLSGgBvesXVLeC+t5bW7gjngYnMcgyP8A61bXesq5/wBY31poDxS68F2x8fQ6TDLLHZSoZ2G8llQdVB+uOa9s0GytdNsEs7KBILdBwiDv6k9z7muDkhz8U7VsjjTpcj8RXomn/cb6UNAXBThSClpALTT1paQ0AVr4gwBGUMjZDKwyGHoR3rxf4heDNO0+2bVtMhW2UMPOgX7mD3Udvp0r2e9/1a/WuD+IUD3HhO8jjUs7bQoHc5pgZ/w18L2VlptrrM0Ky39wnmIzDIhU9Ao9cdT716qDlF+lch4Vga38OaXE6lXS1jVgeoO0Zrrl+4v0pAPHSlpop1ACHpSA80ppvegRy3iPRdP1+1aDUbZZduRHL0eP6N1/CvHNA8IR6j4uutKupW+z2bEzMhwXAOAB6Zr3O5GS31rzzwlCf+Fg+Jn7BlH/AI8abQ7npmi2tvY2KWtpCkFvEoCRoMAf/X960hVOw+630q2OtIB1FFFACGqWpKssHkyokkTqVeN1yrD0INXTVO++6lAjwnx14QtNL1ezOmL5UV9J5YhJJWN8jp7c9PavUPCXh3T/AA3aCKzhHnOAJbhuXkP17D2Fc14/jzf+Hm9L8fzWu+tRhwKdhmwetKKQ9aUUhDhQaKKBjJCfJf12mvKPiL4XtLywn1iGPyb6Fd8jIcCVR13D1969Xk/1T/7prjPFke/wxqgHX7LJ/KhAed/D3wfZ6oh1TUlaeJZCsUBY7Wx1Leoz2r3C0wsG1QFRcBVUYAHoBXnXw1iaPwnEGGGE8gI9Pmr0W0/1TfhRbQCcGnZpopwoAKQ0tBoAwPE2lWOs2rWmo2yTwlcjP3kPqp6g14to/gyC58a3mk3MrPaWXzvhsM6k/KPbPf6V7tqIy4/3a860G0kT4oeJZWQiOSCHYx74IzTsB6Dottb2NtFa2kCQQRghY4xgCtUdao2P3xV0daQh1LSUvagBDVTUADb7WAZWyGVhkEHsRVuqt9/qB9aBngnjrwtb6d4js49OXyYtQJCx5O2N8gHHtyDivUPCXhvTfDlsos4Qbhh+8uX5dvx7D2Fcv4+hLeIfDDel02fzSvQrddpAppAbAOUX6Uopq/cX6U4UhDhS0lLQAZPNeMfE3wlp9xbTa5DAsV5GQZ9owJVzjJH94evevZvWuB8bQ+f4cvo84LKB/wCPCgZ5R4H8IxeJNQlE8rQ2duB5nl8M5PRQe31r3XRNA0jQolXTNPhgboZcbpD9WPNeb/CaMompZHO9P5GvV4u1CWgF5nJYkkk+uaAx7Mfzpp60UASCR/77fnS+bJ/fb86jpaAJPOk/56N+dHnSf89G/Oo6KAJfOk/56N+dHmv/AH2/OoqM0Acp4v8ADEWsOt3bBY7+LD+gmx2b3x0NdRGT5akknIByaguf9av0qaHmCM/7IqGM1rD/AI9z/vGrVVbD/j3P+8atUCCiiigAooooAKKKKACiiigArM1b/ll+NadZmrf8svxpMEYmrts0K9PpC1cp4BGdIQ/3rlz/ACrpvEDbPDd+f+mJrnfAC/8AEjtT/elkP/jxpoZ3VFFFUISiikoAWkNFJmmAtJRRmgBrf6t/pWXJ3rUf/VP9Ky35JoQHnfxJXculoP4rtP516bpgwrfSvN/iAu+/0RPW7T+delacPkem9wLtLSUUgCmmlpDQBFcf6g/Wst+hrUuP9R+NZj96aA4fRefiZrvtaxf+hV6dBxAn0rzTQgT8RfEDf9MIh+temQ/6lPpQ9wH0UdqKQAab3pTSd6AKd3/rTXLeMx/xSOqHv5DV1N3/AK41y/jTjwfqn/XBqpCNDwiu3QtIHpZxf+giunHWue8Lrs0jS1/u2cQ/8cFdFUjFoopKAGmmv/qn+lONMkP7l/pQBkyd685ukz8WbT2Vf/QTXo715/Im74qxHHRR/wCgGm9gR6Zp3+qartU9P/1TVcpALmkNFIaAENV7z/VrVk1WvPuLQBz2u8aLen0gf+VY3w4Xb4PtD6ySH/x6trXv+QFff9cH/lWZ4BTZ4RsR7uf/AB402B3g+4v0pwpo+6v0p1IBc0ho6UUAN71l3H+sb61qd6y7j77fWmgOHf8A5KxbD/qGyfzFegWH3GrgmX/i68DZ/wCYdJ/MV31h9xqGBbFOFIKWkAtNNLSGgRVvf9WlcP8AEDP/AAh97jrhf513F7/q1rivHy7vCF6P93+dNDNTw2MeH9L/AOvWL/0EV1K/cX6VzPh8Y0LTB/06xf8AoIrpl+6v0pAOFOpopc0AFN7040negDHuB87fWuD8Jr/xXXif/fH/AKEa7yf/AFh+tcV4WTb418SH1cf+hGqEehWP3W+lWxVSx+630q2KkY6ikpaAENU777iVcqpffcSgR5z4+do7jQioB3XgByPda7qEYlrhviAuX0M+l5/8TXcxf62qA1j1pRSUoqQFooooAa/+rf6GuU8RLu8PamP+nWT/ANBNdW33G+hrmdcXOiagMZzbSDH/AAE00BgfDlceEIv+u0n86720/wBW34Vw3w9GPCgGc4nk/pXc2n+qb8KOgE4pwptOFIBaQ0tJQMoah98fSuD0UEfE7xCOxtYj+orvdQ+8v0rh9JTb8TdcPrZxf0qkI7iy/wBYKujrVKz/ANaKu0mA4UtNFLSADVa9/wCPf8as1Xvf+Pf8aAPMfHoP9teGiP8An6b+aV30QwwrhvHa51Lw83pdN/NK7pPvCqA01+4v0pwpq/cX6U6pAdS02nUAJXD+MOPD1+2Purn9RXcVxfi5C3h3UgBk+UcfnQM5r4cqivfhCrD5OQMZ4NekRdq84+HaFLjUAQRkIeR9a9Gi7ULYOpdPWig9aKAFpabRmgB1FJS0AFFFFAFa5/1q1JbHNtH/ALoqO5/1iU605s4j/s1DGbNh/wAe5/3jVqqth/x7n/eNWqBBRRRQAUUUUAFFFFABRRRQAVmat/yy/GtOszVv+WX40MaOa8Uts8LX5/6Z/wBawPBkwtfDNhKw4y5P/fZra8ZNs8KXh9QB+tc/oI2+FdOUd4s/mTQgO0TV7J+kwH1qVb62bpMn51xoiOakEZq7COxFxEeki/nS+dH/AH1/OuPCsO9Lh/U0WA67zY/76/nSGeIfxr+dcn8/qfzpMN60WA6s3MI6yr+dMN7bjrMn51y+1qUI1FgOgl1O3wY0fcW9KhY55FZCxGtC3Y7drUwOM8arv1rQlx/y9L/Ou+trlLY4kOA3euH8Vpv8TaCv/TwOK6q+GMih7gba3ts/SZPzqTzoz0dfzrjdhzUqq3YmiwHWGSP++v50xriFc5lQfjXMhGP8RpfKPrRYDZmv4pWEaNn3qFhWekRVgRV5DuTnrTQHHeHhu8d+Im/2Yh+pr0CC9hCBHcKw45rg/C6Z8Y+JG9Gj/rW/dLlqW7A6ZZom6SKfxpfMT++v51yAUjoTUgVv7x/OiwHUmVB1dfzqGS9t4wS0q/Qc1z2w+poEJNFgNb7QLglhXP8AjUf8Udqg/wCmBrSgDRH2rO8Z8+D9Sx3ix+tNAaulMbXTLIkfdt4xj/gArTTVrVvvPtPuKzimyyiX0jUfoKzXT5qVgOoGoWjdJ0/OlN7bf89k/OuWWOpBFRYDoW1G1X/lsPwqrNqkTny48kHqTWT5VOWE5yKLAaLcjIrhVTPxO3ei/wDshrtoSSu01yFvGX+Jch9F/wDZKHsCO4t7pLb5ZOAe/pVxby3f7syH8axb0ZJrO2c0WA6/zoiOJF/OkM0Y/wCWi/nXKhD6mnbD6miwHSNdwIOZV/OqUl7HcPtQ8Dv61k+UakjjZGyKLAM1/wD5AV9/1xb+VUvBK48JaeQONrH/AMeNXNdO7w/fH/pi38qh8Irs8H2HGP3Z6/7xoe4HRx6lBgLI+0jjmrC3lu3SZPzrl5xlzUaoaLAdd9ohx/rF/OkNzCOsqfnXLCM+ppwjNFgOgl1K3jU4cMfQVTL+aNw71mCI1ct8qNposBzO3PxRjPppz/zFdpbzpbgBzgN3rkETPxNzj/mHt/6EK6G96EUAbazxPysin8afuX+8K4/DA8E1Ipk/vt+dFgOsLr/eH50xpol+9Io/GuZ/eH+NvzpPLY9TmiwGzPdxzvsQ5C965bxyufCl4P8Ad/nWrCrI2az/ABmN3hW7+g/nQBpaIu3RtPHpbR/+gitmK+gICs4VhxzWVpg2aJaY/wCeCAf98iqVwCz0AdUJoz0kX86dvX+8PzrkFDDox/OpQH/vH86LAdSZUHV1/OoJb2CJSTIpPoDXPbWP8RpREc0WA0XYP8w71x/hkf8AFX+Ij/tj/wBCNdVDnbtNc74aj/4qzXiO8g/maAOviuEt8bzgEVbS6gcfLKn51i3xzkVm7DnrRYDsBKh6Ov50vmJ/eX865JVb+8fzp+xj/EfzosB07XMKjmVR+NUZ7uO4bbGche9Y/lE96mhQo2aLAc347HyaUeeLrP8AKuyQ4Yt2Fcj45UtBpmASftORj6Cutk+WE+9MRcj1G3bhpArehqdbmA9JU/OuVlXL01UNKwzrvPi/56L+dNa6gXrMn51y4jPrS+VRYDdn1OAKVjfcx44rM1IB9Lu/QwSf+gmq6wnOasyDfYToe8Tj/wAdNCQGB8PsHwvx/wA93/kK7GK5SA7XOAR1rkvh5Ht8OFTxtnbP5Cti+bcxo6Aby3EL/dkU/jUgdf7w/OuPCntmpAH/ALx/OiwHW71HVh+dMa4hT70ij8a5jDn+I/nR5RPU0WA17i5S4f5DkLxXJ6cpHxK1f3soj+ordt1KH2NY1iuPiRqPo1hGf1FNCOoWYW4Dn1qdNTtX6yBT6Gs+9OBgVlFOaQzq1vLc9Jk/OnfaoP8Anqn51ygQ07ZRYDpmv7Zesq1Un1CKciOPkdzWL5ZqSNWVgRRYDn/HCZutCbHS8P8A7LXaKPmz6VyHjNC/9jOMYF4M/pXXyHZET3NMRPHfw/cdwpHHNWFuIW6Sofxrl58s5pqr70rDOt82P++v50efEOsij8a5cKfU/nS+WT3NFgOhl1C3iU/vFZuwHNc5r+JNEvW37AYid/Py+/HNPEJpmq7/AOwr3Z99YWK/XFFgOe8EAfb74iQyBkU7iME8ntXeRjaATXEeCIj9tuj1yqgn3rsbuTYmBSWwPc0dwYZBpc1y5upUY7XYfQ0DUrhf+WrUWA6iiuaGrXI/j/SnjWLn1B/CgDo80ua5z+2Ln2/Kj+1rk9x+VFgOjzRurm/7Tuj/ABfpTDf3Z/5aGgDeuGBlQZp1l/x5xfQ/zNY1lO7y/vGJJ7mtexP+hx/Vv/QjUMZuWH/Huf8AeNWqq2H/AB7n/eNWqBBRRRQAUUUUAFFFFABRRRQAVmat/wAsvxrTrM1brF+NJjRyHjk48KXA9Sorm/DF4tzoNpAvzTRgx7FGSeTjiuh8dsB4ZcHu4ql8O9LS3s4r5wDPLGdp/uJnoPrTQFsabqHX7BP/AN8j/Gg2OoDrYXH/AHxXZZpMmruI4w298o5sLr/v0ajKXg/5cLv/AL8t/hXb5PrRuPqaLgcN/pf/AD4Xf/fhv8KTF4f+Yfd/9+G/wruizep/Om7j6n86LgcSFvT00+7/AO/Lf4VIsN+emn3X/fo12W4+ppCT60XA5aO3vj1sLgfVKuJZ3eObWQfXH+NbZNJRcDz3XtM1h/EGm3i6VcPbW0gd5VAbA+gOf0rav7uIc7x9K6nJCMQe1cxr2lWWtWjw3sRJI+WWNikiH1DChbgYzanAp/1i/nU9ndNfOyWcbzsv3hGucfX0ry+08LSz+NV0OW+nMAy7yByGMYGfwPavfNGsrXTdMjtbKBIIE4CJ/MnqT7mncDC8i/X71hc/9+6ALodbO5H/AGyb/Cutz70bj6n86LgcxGJiebacfWNv8KsFJljLCCYkdghreLH1NMLH1NFwPMvD141n4q1UXsE1qbzBj89CmSpPr9a3bu9iRzl1/OuovdksSxzRpKhHKyKGH61574t8EWl7byXWlzT2V0oJ8pZW8p/bGflP0oQFw6pbqeZFH41bt7iS6iElvBNLGejxxlh+Yrgfh94Qi1mR9R1Z5ZYIZSiWpc4dx13+oHp3r3SMCONEQBEUAKqjAA9hRzAcgDcd7S4H/bJv8KlQzn/l2n/79N/hXW7m9T+dIWPqaOYDnY0mb/l3m/GM1k+Lba+m8O3Nvb2FzM0gAIjjJwMjNdsWPqaaGIYEE0XA5GDWra60+N2byX2gNFJwykdiDVGbV7RGwZk/Oum1WxsdTR4dQs4bmM8fvF5H0PUV4z458HQ6JcwTaZLJ9muJBGIpXLGNj0w3dfrzRcDvV1q03AecpLHAAPJrSVrkgH7HdYP/AExb/CovBHhDTvD0aSrGJ9QK/vLqTkj2Qfwj9T3rttx9T+dFwOSDTDra3A/7Yt/hUqNIf+WE34xN/hXU7j6n86TcfU0XAwAsmwkQy5H+wa41JZLHxk2pXdtcQQO3liSWJlU/LjOSK9PLH1NMlcmBwfmGOQeRSbuBy15fQY3eamD0Oay21W2U/wCtT86seIvBmj61AzLE1jdY+Wa2YqM/7SdCP1rzLw14NfVfEV3Y6jPIlvYsBN5bfNISeAp7A4607gel2t+t27Laq87L94RKWx9cVcH2v/nyuv8Avy3+FdFo9laaZpsdrYW0dtAnRIxgfj6n3NXtx9TRcDk1Fz3s7n/vy3+FWIo7hv8Al1n/ABjNdLuPqfzpCx9TRzCOT1qz1CXSLmG2sLiaSRCoVVGefqaqaBP9k0GCxuo3t7i3BRo5l2nr15rtc1R1OKG6Qw3MMc8TLgpIuRRfUZytxfwIxzIv51VOsWqctMg+pri/iB4Ug0QDUNPmmS1dsPA8hbyz/sk9vY9K63wD4MstNtbbUrxPtOoyosimTlYAeQFHrjqfyouBtwx3s0ayR2VwyMMhhGefzqUQ33exuf8Av2a6sklic0oJ9aOYDl0hu/8AnyuB/wBszVpLa6I/49pR/wABreyfWmk0XA4RbHU4PGv9pTabcLZm2MHm4BAPB5wcjpWje3cQJ+dePeupyQDj0Nctr+g6drtuyXUbRzY+W4gYpIp+o6j2NCYGS+pwBv8AWL+dWLK6a/lMdnG07jqIxnH1PQV5n4f8KPqHjG70rUbuZobHLTeXIQZRkAAHtnPNe66Ra29jYi3tII4IEACxxjAH+NFwMcWWpDrYy/p/jThaX462M4/4DXSinUXA5+O2uz1tZh9VrO8TaZqN7oc1ra2M0skmAAoHHPua7Gmk0XA5m1ke30m3iuongljiVGSQbTkDFZtxfwoxy6/nXW6isc0AimjSWNgQyOMgivFfiF4Vi0ZV1LTJp0tpJAklu0rN5bHoVJPTtg9KL6Adp/a1svJlQAepq3DdtPGJIopXQ9GSMkH8cVkeDPAWn2EEF7qaG9v3UOFlbdFDnsF6E+5/CvTtxUBVOABgAcAUcwHGid+8E3/fpv8ACpUmJ/5ZS/8Afs/4V14dv7x/Ol8xv7xo5hWOZVm2FhFIceiGuc8PPLbeINSubm1uII7s5R5YmUcH1Ir0gu394/nTWYlSCcgjkHmi4zk726iBzvXH1rLbUYFbmRfzpfFPg+x1q3kkti9lfgEpJC5VHPo65x+I5rzrwT4V/wCEjvZ31C4uEs7ZtkiRyEO7/wB3PYccmi4HpEOpRTSeXC3mSf3UG4/kKtiSUdbacf8AbJv8K6DR9PsdKs/I060itohgbYxyfqepPua0Ax9T+dFwOSWV/wDnjN/37b/CrMRdv+WMn/fBrp97f3j+dBZvU0XCx5z4riu7gWsVvZ3UmxixKQsR244FbzahFJbKzHYxXlHGCPwNdMXbsT+dZWtWNnqcIgvrZJ42HckMPcMOQfpRfUDl59St0PMq/nUX9s2iDLToPxrzvxj4Zk0XXba0srmeaC9/1AmkJZTkAqT36jmvSfC/gTRdFWOeaD7dqAAzPcfMEP8AsL0Ue/J96LgWYbl54xJFDM6HoyxMQfxxUwkkzzBOP+2Tf4V1u48AHAHYUoZv7x/OjmFY5dHc/wDLGX/v2f8ACnXcksNjM6W08jeWwCpGxJJH0rpwzep/Ojc3qfzouM4HwXDc6doslvd2s8BEpOZY2XOQPWr15dxKxJdfzrrmYsjAnIx0NeY+OfCFpeafc6lp5ks72FTIyxSMIpQOuVzgH3GKEwNA6lAD/rF/Op7S8+2Ei1R58dfKUtj8q4zwB4Ms9UsYtY1cy3McjHybYyMEIBxuf157dK9js444LRYoIkiiXhUjUKoH0FFwOZAuh1s7n/vy3+FPXz/+fW4H/bJv8K6oMfU/nT9x9TRzCsc5GkxH/HvMP+2ZrDs4NRXxvcXx0u8FtJbiESmI44xz+hrv9zeppCx9aLjOUvr2FGKs4DDqDwRWPJq9qrczJ+ddD4l0TTtcjeC/t93HyyxsUkjPqrD+R4rx7RfA633jK/0q9upDaWBDSMhw8oP3QD246n8qLhY9Bh1i2mmEMLiWQ9EjG5vyFafk34AJ0+6x/wBc61dA0rTtGiW30yxgtI8c+WvJ+rdT+JrYBouI5IG5Bw1ldD/ti3+FTR+cTzbXA+sTf4V1QJ9T+dPBPqaXMB5r4ot9QupLGO1027m8iUykrA2O2BnFdDPdhYEMytCzDO2QbT+tdSSfU1m6zaW1/p5t7y3S4gc4ZJBwf6g+4ouM46fVLZG5lT86h/tuzQZaeMfVq848b+FRoOsW8VlNLJbXhxAsrksjZA2k9xyOa9N8L+BNE0NI5ZLZb2/ABa5uBu2n/YU8KP196dwLdnLNepvtreaVP7yIcfnVvyL0dbK4/wC/ZrpY2JhFOyfWi4jm1S47204/7ZmqusLL/Y91GLeZnliaMKsbE5Ix6V1+4+po3sO5/Oi4zzrwmstlezRzwzo0gG0NEwHHXnFdHeSYHKt+Rro97dNx/OjcfU0logODnu0Unhv++TVQ6hH7/wDfJr0fcfWjP0/Ki4HnA1CL1P5U4ajD6/pXoufYflS5HoPyp3A88GoQ+v6U9b+Lsf0r0Dj0H5UZ9h+VFwODW9jP/wCqn/aoyO/5V3Wfp+VBOQQQCPcUrgcQl3HD+9Z1VF5JJ4Arb8PXiahodreRHMcwZ0PqCxxXEfETwddXVldXmj3csSope4sM/JIo5JT0P+z0NdP4FZW8D6QU+55Ax9M1DGdtYf8AHuf96rVVNP8A+Pc/7x/pVugQUUUUAFFFFABRRRQAUUUUAFZmrdYfxrTrM1brD+NDGjhviGceGwB3kFafhCPZpFmPS2j/AJVi/EqTZ4fjHrIf5V0XhtNmnxD0hjH/AI6KEDNqiikqhC0UlFABSUUUAJRRSUwCkoooARv9U59qxp+Qa2JOIX+lY8nOaEBwGmRbvitdv2jsm/UqK9VtB/o615now3fEzWW/uWaD83FenW4xbp9Kb3AlooopAIaYacaaaAK92fu/Ssm+5tpP901qXh+cfSsu9OLWU/7JpoDnfh5Hs0Et/fu5j/49XonpXn/w9y3he1b+9NKf/HzXoFJgOpDRQaAGmmjqKU0g60AZ85/eN9a4P4gQmaPSlH/P9H/Ou6n++31ri/HJO7RgP4r6MfrT6Adtpow+K06ztOH7xq0aTAUUUlFACGo5f9S9PNRzf6hqAMyXkVxfheIr4t8TMehnjx/3ya7R65DwyxPijxIPS4jx/wB8mqA9Dtf+PdamFQ23/HutS1IDqQ0UlACVUvPvj6Vbqnef6z8KAPPvihCZfCcu3qHU12WkJstbVfSKMf8Ajork/iSSvhSQj/nqorsNP4S3H+wn8hTe4GyetLSHrSikAtNNLSGgBvY/Q1kS85rXP3W+hrIk600BwfhyBl+JHiWQj5Wijx+Yr0uy/wBS1efeHjnx54mB/hEQr0Ky/wBSfrSYFkU6minUAFNNONNNAFS96J9DXn/xJhM3hcqvX7RF/wChV399/B9K4X4hsU8M7l6/aYf/AEKmtgOrshtSMf7K/wAq2zWLa8FPoK2T1pMBRTqaKWgApp6H6UppD0P0oAxZuv41w/w5gaKLWS4xm/cj6ZNdxLy/41yHgF2kt9WZiT/pzgfmaYHoNp/qzVgVXtP9UasUgHCg0lLQA01Tvv4fpVw1Tvv4fpQB5x42tGn8ReHZFxiOc5yfda7+D71cN4xfZ4g8OjP3rgj9RXcxffpgadOFN9KUUgHUGjNFADT0P0rmtaQvpN6oGSYHA/75NdKeh+lc7qv/ACDbz18l/wD0E00Bi+AIzH4I0lWGGERz9dxrt7f/AFP41xfgRi3gjSmPUxn/ANCNdnbf6n8aTAmFOFNFOFAC0lLSGgDNv/8AWn6VwuhRFfiL4kYjho4CPyru7/8A1v4VxWjE/wDCxNfXt5EJpoDuLL/WLV0VRsv9av1q8OtJgPFOFNFOpAB6VVv/APj3H+9Vo1Vvv+Pb/gVAHlXxEgMuq+HG9Lvn81r0SLjFcH4/yL7QSP8An7/qK71OoqkBpRf6kU6mQ/6kfWn0gFpKKKAClFJS0gFooooAKWkooAWlpKWgQUZopKAMrUF3pOp6MjD8waxfh5/yIGj5H3Yduc9cEit67GXceorB+HeP+ED00j/bB/BjUso7rT/+Pc/7xq3VXT/+Pc/7xq1QIKKKKACiiigAooooAKKKKACszVfvQ/jWnWbqv3ofxpMEeb/FBsaNbr6uf5V2GiLtswPQKP0FcV8Tzm2sI/7zn+YFdppc0aRtGWAYHoaaGalJSb1P8Q/OjI9aoQtFJmjNABSUZpKAFpM0ZpKACikzSF1HUj86YBMcW71jv3rQubmIR+WHBY9gaz260IDjdAXPxA8RP6QQL+bE/wBK9Lh4hT6V5z4cTPi/xK/+1Av6Ma9GiYNEuDkYoe4ElJRmkJoADTTSmm5FAFS8P7z8KytRbbp9wfSNv5VpXLh5CVORWPrb+Xot6/pC38qpCMv4d/8AIo6cT/E0h/8AHzXf1wXw+Gzwjpeem1j/AOPmu8DA8g1Ax1JRSGgANNHUUE01nCKWJAApgZ0x+c1xvjVd1zoQ/wCn9K7GQhjkVyfi1d99oS/9Pqmn0A7PT/vua0Kz9PIVmyevSr4NIBaDRSE0AIajn4gP1p5NQXLqItueSaAKDVxvhUk+JvEx/wCnlP5GuxPWuO8J8694jb1ul/rVCPRrb/j3WpagtXUwAZ5HWp8ipGLSU0yqP4JD9FoDhuQrD/eFAC1TvD+8q0WA6kVQuJVlclTkDigRxXxHz/wirY6+cldhYcGEf7K/yFcl8Ql3eGCP+myfzrrLRgjRsx4Cj+VNgbPelpgcMMgginUhi0hopCaAEb7jfSsiTqa0ppkjjbcwGRgVmPyaaA5Dw6v/ABW/ihveMV6BZf6g/WuC8Or/AMVd4nb/AKaxj+ddzaSqqeWSAetDAuilpoIpc0gFpppSaaWA7igCrf8AVPpXDfELnwyo9bqH/wBCrtLqZJXwhztGOK4v4gDPhxB/09RfzprYDrLf7yfQVsGsWDqpPTaK2A4YAg8GkwHUtN3KBknj2Gab9oiPd/8Avg0ASUh6H6Gk3AjP86bI6qjEnAxQBkSf6wfWuO+H4Is9Vz3vnP6muwc5cfWuR8CcWmp+94x/U0xHoFn/AKk1YqrZsBGVzzVnNIY8UtNBooAO9Ur/APh+lXao3zqWAB5A5oA8/wDGYB1zw8x7XB/mtdzGf3lcT4x/5C2hHH/Lc/zWu1T/AFlMDVHQfSlqNHDoCDmng0gHUUlBoAOxrn9TGbC7H/TF/wCRred1RSSQBisHUPmsrn3if+RpoDG8C8eCNMHojf8AoRrs7b/Un61xngfjwZp49A//AKEa6+1kXYUJ564oYFoU4UwGnA+9IB1IaM0EigDOv/8AW/hXGaTx8RNc97aGuxvZFeU7TnAwa5DTBj4hayfW2hpoDsrP/XL9avjrWVHKIMSHsatpqNq//LUA+hpMC6KcKri6gPSaP/vqn/aYP+eyf99UgJTxVa9/49j9aVr61XrOn51SudRgmAhibdzkmgDgPH67p9EPpdf1FdypxiuM8crmTRj6XY/pXZDotUhGlAf3I+tSVWgnjVSjOAc9zU29D0YH8aQx1LTcg96UUALRSUtAC5opKKQC0tJS5oEFFJRQA6ikzRkUAZ91/riPWue+G7A+B7Rc/cklH/j5roZ2DT8HPIFc78Nyv/CHIq5O25mBz67zUso7/T/+Pc/7xq1VXT/+Pc/7xq1QIKKKKACiiigAooooAKKKKACs3VPvQ/jWlWbqn3ofxoYI8w+JB33ukRf3pVH/AI8K1LxmMzbSetYnxHmEWs6UzdI2Vz9AwrblZWYsDkHkGmhkSSTjpI4/Gp1ubodJn/Oo1ZaeHWrsIlF7dj/ls/508X94P+WzVD5iUnmpRYCx/aF5/wA9TR/aN5/z1aq/nR+tIZ4/UUWAsG/uz/y2amm7um6yv+dQ+fH6ijz4/wC8KLAPM87dZH/OmkyN1Zj+NJ9oj/vCnCeM9xRYARXVs81oRvvXnrVNZEbuKkaZIULkjFOwGN4ajP8AbniOQgjNxEB7gIf8a2nnnib93Iy+2ayfDWpWl3faukDEuHjJyMZ+UgkeozWpM6gmluAo1W8X/lpn6il/tm7HUr+VUJJ0HcVCblPUUWA1P7Yu2/iUfhTWvLqUYaVse1Z6XCZ6irCXMWcbhn60WAv28rfdaqXiY7fDWoEf88G/lVuF426MPzrN8XTxxeFr5XkUFoyoyeuaa0Ab4OTb4L07/rmf/QjWgbu5hOElYAdqqeEpYT4OsArqSiFWweh3Gp5po1J+ZfzqUroCX+1rxf8Alpn6ij+2Lz+8Pyqg1wnqKjNwnqKdgNL+1bx/+WmPoKa1xcS/fkYiqK3MY5JFWIrhGwecHviiwGjbyll2nrXP+KFzq2gj/p8H8jW5CyHkEVz3iW6h/t/QQ0ijZdbiM+1PoB007NGPlJBHpUH9pXa9JD+NTXUse3O4VmSXEanBYe1KwF/+2LsfxA/hR/bF2e6/lWUbmPPUUguUz1FOwGsdRu3/AI8fQUxZZTJudix96pJdx8fMBmrcU0ZI5H40rAX1O5Qa5Hwau7WNfPX/AEof1rqxLHGhYsAB71yPgm6g/tXWF8xcyzb156jJoYHUzvIr5RiD7VF9sul6StUlxNGCfmFUXuoucMDj3p2C5ZOo3Y/5a/pSf2hdt/y1NUGu4/7woS7jz94fnRYC40s8n3pGP41PbOyHB6VTS7hJxvXP1q3FLE38a/nRYDD8f/8AItHv++T+ddM2Vt1PcqP5Vyfju6g/sWO3Mq72mUhc8kCuqFzDNZxSRyKyMgIIPtS6gUjLKjfK7D6Gl+33a9Jm/Oo5Z4lJy6/nVd7lB3FFgLn9o3n/AD2aj7ZdP1lb86z/ALVHn7w/OpUuogMlhj60WAshpGbczEn3NaELF0GetZ0dzC2PnX86uJNGql964HXmnYDC8NrnxR4lJ/57x/yNblyW3cGud8MX9s3iPXsTIfOmVk+Yc4yDXQXFxEGOXX86SAh8+dOkrj8aPt12P+WzVA93Fnh1J+tQNdxZ++Pzp2Avfbrtv+WzUhlnf70jH8apLdxf3h+dWEuouMuoz6mlYC1bMyNg1iePhnQIRzzdR9PxrchkiY8Mv51zvju5j/sm2g8xfMNwrAbuwBzRsgOtHywAjqQP5VSa4njb5JGA9M1ajuIpbKKRHUqUGCD7VQmuIQfvr+dO1xEv9pXi/wDLT8xR/a15/fH5VQe5QHqKh+1R5+8PzosM1P7Su2/5afpSGeeQje7EemaordxgZLDH1q1FOjYPb1xRYC/GS6jPrXNeBVLQalnP/H22fzNdCJ4oozK7AIvJzXP+BJY/IvwWG55i4+hzSA6K4lZG+UkEdMVCNRu06SE/Wn3MiButZ0lzGpxnB9DTsBf/ALXux/EPypf7Xu2/iH5Vkm6j9RSrdx+oosBqNf3b8GQj6UsEj7vmJOepNUUu4icbhn0q5DLG3RhSsBz3jBT/AGlozDoJuT+K12LfKhPc1xXi6eNtQ0sB1zE5ZuegyK7KSaNoQysCCOCKOoFFp5kcmN2X6Gj+07tP+WmfrUc88aZJOBVJ7uPruH50WA0RrF5/fH5Uv9p3jj/WfkKyBeR5+8KnS7jAyWGPUmnYC8088v35GI9M1PKd9hOD18pv5GqUV1C2MOv51Nc3cEFhPI8qKojbkn2osIpeCFB8JWIHQb//AEI1p3LtuOCQfasfwNd258NRwLIm6JmDDdnqSf61q3FxECcuv50txkf2u6TpK350f2pej/lqaqSXkOSA68e9V2vIgfvj86dgNT+07xv+WppDc3Mg+aVz+NZ0d5F/fH51YS9gzgyID/vUWAv27MDg96xdOGPiDqvvaxVrRXMJGRIn/fQrnrDVLQ+PL2Tz49skKxKdw5ZetLYDrLknbgdqzHQk5q9cXUA6yp/30KzZb63U/wCtT/voUWAQrSAVBJfRA/fX86YuoQ5++v50WAvqmaniQq2RVKO/hPR1/OrUV7A3SVP++hRYDJ8Zjeukkf8AP2P6V14O1N35Vw/i2/tj9gTzEZ4p/NKhhnArpLbWbO5tElW4i+YdN44oAdcBmY1Bhx0JH40kmpWgzm5i/wC+xVdtWsh/y8w/99iiwi1vlHSRh+NOFxcDpK/51QOr2X/PzD/32KT+1rP/AJ+Yf++xRYZoi8ux0lf86cL+7H/LVqzf7Ws/+fiH/vsUf2raf894v++xRYDUGo3g/wCWp/Kj+0rz/np+lZn9p2p6TR/99Cl/tG2/56p+dFgNP+07z+/+lJ/aV5/z0/Ss7+0YO0i/nQNQh7OKLAaB1C8P/LU037bdn/ls1UvtsXr+lOF4p6Bj/wABNFgLf2q6P/LZ/wA6aZrkjBmf86hW4z0jc/8AADUoZz/yyk/74NKwFuwkOdrHvms34cZHhq4Tsl/cD/x81OtykDeYzbQh+bPGKqfDSRZfDt46n5W1CZlPsWyKljPRdP8A+Pc/7xq1VWw/49z/ALxq1SEFFFFABRRRQAUUUUAFFFFABWbqn3ovxrSrO1T70X40MaPJviFBLe6/Y21vGZJmQBVHfmur8P8AhmGK28zUXN3IT8sZY+XH9PX8aydQO/4jwj/nnZk/nXaaeMWq0ICM6HpDddNtv++T/jUZ8O6KeulwfgWH9a0qKoRknwtoLddMj/7+P/8AFUw+EvD5/wCYWn/f6T/4qtmigDE/4Q/w8f8AmGD8J5P/AIqmnwb4d/6Bp/8AAmX/AOKrcooAwT4L8O/9A5//AAKl/wDiqT/hC/Dv/QPf/wACpf8A4qt6koAwf+EK8Of9A9//AAKl/wDiqUeDPDo/5h7/APgVL/8AFVu0UXAxl8J6Ch407855D/7NT38MaHJGY302NlPUGSTn/wAerVpaAMa08JeHdPk8yz0a2hfGNyFs4/OrT6HpMvD2EZz6MwP86v0DrQBxWseB4ZmY6dq95ZP2STEyfrgj868y8S2Pirwywee7Sa2Y4WeJeM+hHUV7hdH961cV8QOfCl7xn5R/Oq3A5HwPYaz4nla4u9QaDTon2sY1/eSnuF9PrXt1nY2llbJDb28caAemSfqTyTXm/wAK1x4UiYj708h/8er1EdB9KlAHlx/880/75FRyW1tMu2W3hcejRgipaDQBElvBEuyOCFF9FjAFBjjPBiQg9toqQ00feFAHMa34Z0++MnkvNYz9pLc/Kfqh4P4YryLxXD4m8L3C+Zepc2shxHMiEc+hGeDXudycyv8AWvOfiemdFtsd7uIfrVdANTwR4YnCQ3mvTm6uWAZbbpFF35H8TfXgV6KABwAAPQCsnSkCygela461IC7Qew/KmNDExy0SEjuVFPoNADCq/wB1fyqG4ggngdJ4Y5Ux911BFTmo5eIXPtQB554h8GPLG82ianNZy9fIl/eRH6Hqv6151pMfijUvEh0RrwQTR5MzugIjUd+OvUYr3CcZU1wHh6PPxO1x+yWyD82psD0Hw9oVnpFriPfcXHAe5n5dj7dlHsP1rawD1VT9RUFn/qD9asgUgGmNCMGNCP8AdFMW3gjOUgiU+oQCpu1NNADMAfwr+VZOs6JpmpxBbu2w5HEsLGORfow/rmtc1VvOi/SmB434y8J6poVpJqGmaxc3Noh+eOUASIPXI4YflUHgXw7qXiNft+o6rdRacHKqkTAPMR15x8ozxnrXe+NP+RU1LHXyTVT4cxlPBOlZGCyMx/F2oYHeWVjaWVrHDa20cUYA+VV/mTyfxqx5UR6xR/8AfAoXhVHtTxSAheztZCC9rAxHQtGp/pSiGFFCrDGqjoAgAqWmmgCMwxP8rwxsp4IKAg1xfiDwZZah5jWF7daXcc/6ht0TfVD0/Aiu3H3hWVcHMjfWmB4FfWHiay8RpohvppLmVgsTK3yuD0bpwODn0xXrvhPwXbaYEm1K7m1S8xnMx/dRn/ZTv9Tn8K5rU0LfF7QuOBbyE/8AfL16Xp/X/gNAFwQxYx5UePTYKXyICMeRFg/7Ap4pQKQECWNnG26O0t1PqsSj+lPMUX/PKP8A75FS0w0AZmraPpupWhS8s0fnAdPkdfcMMEV5R4v8GX2jWU2o6RrN7NbRDdJBOwLovchgPmA+ma9kuv8Aj3/GuU8U/wDIs6nj/n1k/lTQHnXgvwpqviKFb++1m7tbAsQgjIMkuOuM8Ads817FpugaVptokdvZo2R80k/72Rvcs1cr4AUp4K0gHg+Uc/8AfRrvE/1SfSkBGtlaDpaW4/7ZL/hTJdJ0ydg02m2cjDu8Ck/qKtClAoAgWys40CR2luiDoqxAAfpSNZWjgq1pAynggxLz+lWDSfxCmBwPiLwNa3ZkfS9QutMnH8CtvhP/AAE8r+B/CvJJ4vEcGvf2M13N9sMgjADDa2ehBx0xzX0Ld/61/rXlV9ET8ZbPjgxqf/HTQwOw8J+DbfTTHNqV3Nqd51zMf3Uf+6nc+5z+FdwMdMDH0rOsB+8WtIUgF2qRgqD9RQERfuoo+gApQKWgBpx6CqWpWdre2bx3dukyejDkfQjkH6VdNQ3H/Hu1AHjXjTwxqGjW0mo6Tq109qnLwTYLoPUNj5gPfmjwT4X1DXLaHUtW1a6js5OY4ISFeRfUtj5Qfbn6V2HjQZ8J6p7W7/yqXwcmzwppGP8An1j/AJUwOqsbGzsbVIrS2ihTHRRyfqTyfxq0FX+4v/fIpkX+pT6VKKAGmGJjkxRk+6CnAKBwqgewFOFIaQDSAeGUEHqCK4bxN4Os9S82SwuZ9Mu+fmgOY2P+0h/mMV3Pesm9/wBbJ9aaA8D03TvEOo+JZNEGoSxzQswnkLZVFH8XTnORj617H4b8G6ZphR55LjUrrHMt22VX/dQcD8cmuN8PRkfFfxBxx5Kkfmteo2H3xQBcEcfTy0x/uila3gddrQRMPQoDS08UARx2ltFny7aBM/3YwP6U7y4x0jT/AL5FPoNIDG17QtM1ezKXlsQ2cLNC3lyp7hh/XIrxHxp4d1PwxJHNDqtzdWMz7EZjh1bsrY4P1Fe/Xn/HufrXmvxNTdoVmQOl/F/OgCr4W+HsskMV1r+qXrlgG+xwTFQPZn6n6DH1r0+102ws7dIrayt4owB8qoP59T+NZ9sMBfpWyv8Aq0+lNgNFtbn/AJd4f+/YpF0+xVtwsrYN1yIV/wAKmFOpAM+zwDkQRf8AfAqKeztbmJoZ7WGWJhgo8YINWTTe9AHkfi34fQLbz3uh3V1bSRgubRpmaM467CeV+mSPpXD+FPD2r+Kb10gvZYLaLBmuJHYhc9AB3PtXuGqDNrcj/Yb+RrivhUpj0K8Vhgi6P/oIp2A6XQvh9oenujXLXWpzdS13KfLB9oxgfnmupGmacgAXT7RQPSBf8KZan96tXT1oAqNpWmO25tNsyfUwIf6Ug0fSx00yyH/bun+FW6WkBT/sfSj/AMwux/8AAdP8KP7G0r/oF2P/AIDp/hVyigCp/ZOl9tNsv/AdP8Kd/ZenDpp9p/34X/CrVJTAr/2bYDpY2v8A35X/AApRYWQ6Wdt/36X/AAqxRSAiFpajpbQD/tmP8Kd5EA6Qxf8AfAp9FADfKiHSKP8A75FLtQdEUf8AARS5ooAOPQflS/lSUUALmjJ9aSigRi+INEstZtzBc+ZGxHyzwttdT/Jh7GsD4c2b6XpOo6bKQZLW+aNmXoTgcj6jFdfd/wAJrA8NqF1TxGv/AE/K35xrUso7TT/+Pc/7xq3VTT/+Pc/7xq3QIKKKKACiiigAooooAKKKKACs7VOsX41o1nap1i/GhgjzqY7viRc/7FmP1Irt7MYtU+lcLG2/4kav/sWqD9RXe24xAn0FNAS0UlFMBaSiigApKKKACiikoAKKKKAEpaSigBaB1oooAyrg/vG+tcb49OPC917gD9a7Cc5dq4z4gNjwzKP7zqP1qkBN8NkC+FrTHeRz/wCPGvRq4H4eps8NWA92P/jxrvu9StgHUlLSGgBppB94UppB1pgZk5zI31rhPiKN2naev96/hH/j1dzMcua4nx8N8ejJ/e1GIfrT6Ad3pwxO/tmtMVnad/rZTWiKlgLQaWmmgBDUMxxA9Smobg4t2+tAGXLyDXEeGhnx/wCI29EiX+dds/Q1xfhYZ8Z+J3/241/nVdAPSbT/AI9h9asiq9r/AMey1YFSAtNNLSGgBpqnenlR7VcNUr374+lMDlPGjY8Kagf+mf8AWjwMuPB+jcYzbg/qaZ43OPCV97qB+tWfBy7fC2jr/wBOqfypsDsx0H0pwpO9LUgLSGlpKAGj71ZM/wB9vrWt3rIm++aaA4K7Ofi9pa46Wch/8davRtP6n6V53Mu74vWZ/u2L/wDoLV6Jp/VvpQwLy0/NNFKKQC0004000wK93/qPxrlfFBx4Y1Q+ls/8q6m7P7gfWuU8VH/ildV/69n/AJU0BD4Icv4Q0t25JjP/AKEa7ZP9Un0riPBAx4O0sf7Df+hmu3j/ANUn0pASClpBS0ABpv8AEKdTe4oAzLr/AFz/AFrze6Un4vWfp5Q/9BavR7r/AFz/AFNefzp/xdi0b/piP/QWo6Aeh2P+uWtIVm2P+uFaQoYDhS0gpaQDTUNz/wAe7VOaguv+PdvqKYHG+Mf+RT1T/r3b+VT+FP8AkVdIP/TrH/KofFw3eFdTHrA1S+FePCukD/p1T+VMDrYv9SlSCo4f9QlSCkA4UUgpaQDe9ZN5/r3+ta/cVkXv+vf600B57oWf+Fpa4O3kA/qtejWJ/eivPNGQr8UdYbs0H/xNehWB/fAUwNGnimCnCkA6kNLSUgK93/x7n61538R/+Rftj/0/Q/zr0S7/AOPZvrXn3xDXd4bjPpdwn9aYHWw8BfpWwn+rT6VjRHhPpWxH/qk+lDESCnU0U4UhhSd6dTf4hQBzupf6i4H+y38jXGfDNl/su9UDkTgn/vmu01H/AFdwP9lv5GuG+GXFrqQPXzEP6GmB6Van94n1q8etZ1sfnT61pHrQAlLRSUALRSUUALRRRSAKKKTJoAWikpaAClpKKAFopKKAFooo60AVrv7q1z/h448QeJE/6bwt+cYrorv/AFQ+tc5oXHivxGvr9mb/AMcI/pSYHa6f/wAe5/3jVuqmnHNu3++f6VbpAFFFFABRRRQAUUUUAFFFFABWdqfWL8a0az9T6xfjQB5np/7zx/4hf+6sa16FEP3a/SvOdHbPifxPN/03Rf0NbI1y8iO0OCB6iqQzsKTFcoviK77qhqVfEU/eNaLCOlornh4ik7xD86cPETd4R+dMDforBHiL1g/Wj/hIx/zwP50AbtFYJ8SL/wA8D+dNPiUf8+5/OgDoKSsD/hJM9IP1o/4SEnpAPzoA36SsH+33/wCeK/nSHXpu0a0Ab9KThGOe1c6dduOyIKim1e6kXGQB6KKLAXpDkmuM8f8AOgbfWVa6uKYTJnvXK+PBnSI19ZRT6Aa/gcCPw/p2eBsJz/wI124Oa4fw6vleF7H1MQ/manOp3cT4SZgB2NJbAdlSGuSXXL7/AJ6A/UVINZvT/GPyoswOnzTHdY1LMQBiuaOq3jf8tf0qF7meUgySM2PU0WA1pDk5rkPGa77zw+nrqKV08Eu9MHqK53xSu7WPDq/9PwP6U+gHZ6dIqu4Y4LdM1pCuZuSVGBmqgu7mP7szgfWlYDsqQ1yA1K9H/LdqP7TvD1nalYDrDVW6mTZ5eRuznFc99quZB80zn8adEzK+4kn607AX371x3hNf+Kj8SP63CD9K7DO5c1y3g9AdV198dbvn8qYHf2jq0CqDyOoqyK5mR5EfKMVPsaVb27XpK340rAdLSE1zw1G7/wCen6UHULs/8tP0osBvE1Qu3V5DtOccVmNdXLjBlbmnQOR8poAwfHef+ETuwO5X+daXhhfL0DSlPRbaP/0EVm+O/wDkVrn3Zf51saOmzQ7IelvGP/HRTe4HThg4ypyDT81zRkmRvkdh9DTxe3Q/5aNSsB0VITXP/b7v/np+lBvro/8ALQ0WA3WcIpYnAxWTIckmqbyTSffdj+NTo25MHrQgOOxu+LCH+7ZN/wCg131gwUkE8kcVwsK7vilKfSzP8hXXT7lAAOMUAbopa5tbu5TpK1SDULsf8tP0osB0FIawP7Ruz/H+lNa9um/5aGiwGreOuwJnnOcVy/in/kV9T/692q+jyeZuZiSfWqHijnwxqXvAaaAj8Gjb4S0wf7Df+hGu0iIMSYPauQ8Hrjwppx9Iz/6Ea0zcTxMdjkD0pdAN8GnVgDUrodwfwp39qXP+z+VFgNzNJnnmsI6ldH+ID8KikurmQYaQ49BRYC5cENKxByCa4eUf8XRtz/0xH/oLV2ELEpg1yjqP+FmQ/wDXAH/x00+gHa2sixOGY4Ga01ZWGVYEexrFlBCYqnmRT8rMPoaVgOpBpc1y4nuB0lf86X7Rc/8APV/zosB0xIqrdzII/L3Dce1YJlnbrI/50IG37iSTRYCl4r/5FjUv+uLVL4ZH/FMaUPS3T+VM8T/N4Y1D/rian8NLjw3pp9LZP5UwOkt3VogoIyvUVOK5uZnDZUkH2pgurlekr/nSsB1FLXLm/ux/y2aoX1G8/wCezUWA6ssByTgDvWRcuskrOpyCeKw3uriQ/PK5Huau2sm6PaaaA5XS1A+JWpkEf6j/AOJru7NwkoZjgZ61xNgu34h3p9YD/wCy11k52RYHegDeFOFcmL24j4SVgPSnDVbwf8tf0pWYHV0GuV/ta8/56n8qjbUbxhjz2/CizA6S9kVYdhI3MeBXCePQD4aORnFxF/OtJZ5fODOxY+5rO8b4k8Lu3/TaI/8Aj1AHSxH5I/oK14HV4lAOSODWPGdsKt6KKoyTyrIWR2U+xoYHWCnCuTXUrxekzfjT/wC1r3/nqfyosB1WaQsF5JwBXKnVLw/8tj+FRtdXEvDyuR9aLAXb0iRZiOQQ1cR8OVKLqKnruX+tdirFrdgewNcn4BU+dqAPUlf60dQO9gbbtJ4wa1NwPIOawbuTyoto/Gsc39yrEJM4HsaAO2pK4sajdj/lu/51INSu/wDnu/50WA7GiuQGqXY/5btThqt3/wA9jRZgdbS1yf8Aa13/AM9TR/a95/z1/SizA6uiuTOr3v8Az1P5VG2sX3/PU/lRYDsKK47+2L4/8tzThql6f+WzUWA6/NFcl9vvD1mek+23R/5bP+dFmB19JkeorkDc3B6yv+dN86Y/8tH/ADosB2O9R1YfnSGaIdZF/OuO3SHqzfnSYY9z+dFgOourqFgI1kUsT2rD0kbfGGtf7dtbt/6EKrQ5jlVs1Z05v+KwviP47CE/k7VLGdpp3/Hsf941bqpp3/Hsf94/0q3SEFFFFABRRRQAUUUUAFFFFABWfqfWL6mtCs7VTgRn0BoA8p0F9174hkz96+A/IGrr43Vxul6xLYeINRiCNJHcyZ2KMndk4x+dd3D4e1y5hWVo7a33DIjlkO4fUAHB9qqNhsrACnAD1qwfDGvj7raef+2zD/2Wm/8ACM+Iux07/v8At/8AE1egiMAetKAPWnf8Iz4k/v6aB/12f/4mnDwv4gP3rnTl+jOf6UXQDcL60h2+tTr4V1j+PULIfRHNPPhTUyp26laluwMLAfzougKTY9aYStZmq2XinTFZxpQvYh/HZyBzj/dOG/Q1x83juSCRo5rKaOReqOpUj6g0XQHoqbc1KCtcNoPiDUvEd+LPS9OeSTq7udscY9WbsP1NejxeD7zy183VUEmOQkB2j8zmldAU/l9aX5fWr3/CI3Q6aqn4wH/4qj/hErz/AKCkX/fg/wCNO6ApfLUqIp71aHhO7z82qR/hAf8AGpk8MyoedRJ+kP8A9ei6ArxJt5Fcz46b/iXwL6yCu5i0UR9bt2/4ABWZrfg6LWIQDqEsZQ7h+7BFJsCto4C+GNPwcjyFqB8buagbT9d0PTTbwRRajAn3PKbbIo9Np6/ga4G88eXMU8kTWEkboSCrnBB9x2oTstQPRUK1KCtcT4bvfE/iqT/iW6bGlupw91PJtiX2zjLH2Arsh4S8RAf8hTTifTy3ougJ121KqqaqDwv4mB/4/wDSyPpJ/hUy+HfEyn/j60s/jJ/hTugLka7SCKwvEMinxB4eBIH+lEn8q2o9G8QKPmn038Gf/CsXUPA2valqEd1LqtjH5RzGqK52n196TYHQ3GDVGQLUv9g640aq+pWO4DBYRPz+tZOq+H/F0Kb7CbTbv/YZ2iY/TOR+tF0BZZ1HekDr6157q+teK9GbbqOlPa+jOpKn6MOD+dZK+OtUHWOL8zRzILHsCOvrU6svrXlen+JfE2otix0me6/64RO/6gYrbjufHY/5la/P1ixS5kFjv1lVFOTxWB4OZfP1xsjLXhP4YrClfx5dRGIeGr2Ld/FsHH60uk6L4v0vzJIdHvS0nLh1HJ9etDYWO8kZc9ah3rXITj4glyI/DczL6kqP/ZqgNp8R26eHpB9XT/4qnzIDtvMX1FAlT1FcOdO+JJPGgsPrLH/8VSjSviT/ANAMfjNH/wDFUcyCx3QdPUVIpU964ePTPiSOuiR/jcR//FVcisfiGuM6HDj/AK/I/wDGi6Cxa8cuG8NSx5+ZmXit/THT+x7TBGPJT/0EVx134X8b6sym90+GJF6It0h/rV2DQfG9jaC3trK2dF+6Hu0GPalfULHSs6g9aZ5qetcvJovxGc8WGnL9b1f8Ki/4Rz4jt/yw0xf+3wf4U7oLHWeanrSiVPWuRHhj4jk8ppQ/7e//ALGpF8MfEXuNI/8AAs//ABNHMgsdasi+tSBgOQa5WPw38QV5YaR/4Fn/AOJq0NB8eFCpGkDPf7S3/wATRdAVrF0f4n3Lbhj7IVH1wtddMw7muMtfAPiu2vftwubD7STkt57EH2+70rUm0HxzIfll0YD3mf8A+JpJhY1WdR3FM81PWsN/Cvjt/wDl80Yf9tJP/iaYfB3jk/8AMT0cfjIf/Zad0Fjf85PUU4Soe4rnh4L8bnrq+kD6LJ/hUieDPGgPOs6V/wB8Sf4UXQWOhVkPcVl+J3UeGr9SQN0RA/Omx+E/Fq43avpn4RvUd/4G8RanGIrnWbERA5KpE/P1ouFi54RZf+EUsRnohB/76NX5XXPWs7TfB2u6XbNBBq1mYycgNC5wfzp0vhTxHLn/AInVgv0tn/xpJ6AWTMg7ik89PUVnN4J8Rn/mYLMfS0b/AOKpv/CCeIj/AMzJaj6Wbf8AxVO6CxpiZPUVIsiHuKyl8C+IB18S2/8A4Bn/AOKqxH4K1xfveI4j9LP/AOyougsaSkdRXL+Yn/CyIiW48kD8dproo/CurouG16M/9un/ANlWevw5m+1G6bXpTOW3b/s4yD+dJsDcmYY61UaRQetPk8L6jIADrzD6Wo/xqs/gm9fr4juB9LZf8ad0A4zJ6ik85M9RUf8Awgd0eviS7/CBKB4Bm7+Ir38IkougJhMnqKlV1PQioF8COvXxBfn/ALZp/hVmLwc0Z/5DV63/AABP8KLoDM8Tso8NX4zy0RA5q14aZT4X0/BHECg/hU994Ig1GNY7nVb5o1Odq7QD9eKn0/wjb6ZbmC31C98onIVipx9OKV9QIZZFBOSKqtOg7itOTwpBKctqN9+DKP8A2WoT4Jsm66hqR/7ar/8AE07oDNa4j9RVd5055rVl8B2TKdmpamjevmqf/Za5LXvBmt2tvJNo+ttcOgJ+z3MQBb2DDv8AUUXA1VmQnrWhbEYyDXidp4j1+a8jt4mMk7vsWIJ8xb0r17w5oGrNErazqSBm6wWo6fVz/QUJpgULJl/4T6dwRtaNlz74WupuSMc0+LwjokMwmjt5RKG3eZ57ZJ9etXZdHtJhhjOPpKRQmBzsjIO4qEyJ6it9/CumydXvPwnNR/8ACHaVnPmX3/gQad0BiCVPUU8Sp6itn/hD9JH8V7/4EGpE8K6Un8NyfrO1F0Bh7lPesnxXMp8MzRk8+ZGQPowroNY8LDys6ZqEtpNjgSjzUP1HUfga8u16PXbXURaa0yAAbo2hOY5B6g9fw7Um1YD1SOZXtYyrZBUHNVndRWX4a0HW2sYjqF8ttbkZSFU3Tbe24nhfpya7CPQdNEShoGlJHLSSEmi4HPGZPWk89PWuj/4R/ST1sl/77b/GgeHdH/58U/77b/GncDnRPH61KkqHuK3x4f0gdLCP8Sf8alTR9Mj+7YQj8KLgYfmIsTMWAUAknNct4DlT+0L5MrllDDB68mvSvsNlsK/ZINp6gpkVXk0vTokMsdjbxuo4aNApA+oqQMTUpQOM8msYyoDyazvHsmraTanUbCdJrUECWORcPHnoQR1H61zHhweJ/FLM8UkFtaK21p5FJyfRR3p3A7kXEY7il+0J6itPSfBVjFFuvbm6vZcc7n2L+AX/ABrT/wCEV0Q/8uZH0mf/ABp3A5rz09aXz4/WujPhHRD/AMu0o+k7/wCNJ/whuhn/AJYT/wDgQ/8AjRdAc8LiOl+0p610I8HaEP8Al1lP1uH/AMaePCWgj/lwz9ZXP9aLgcy11H61A91H/eFda3hHQHQodOUA9xI4P55rzTxf4B1KySa70DVbmRIwWazmbLYH9xu/0P50rgbYu48/eqdLyMdxXkPh221zxHqYs7a9kRQN0sr8iNfXHc+gr2fQfAmkWaxteSXGoz8Za4kIT8EHH86EwIRqMH/PRfzp39oQf89F/Ouv/snTANo061CjoPKFJ/Y2lnrptp/35FO4HIf2jB/z0T86P7Ttx/y1T/voV2A0TSf+gXZ/9+RTho+ljpptmP8AtitK4HGjVLf/AJ6p/wB9CnDU7c/8tU/76rsxpmnDpp9qP+2K/wCFPFjZjpZ24/7ZCi4HFC+hbkSKR7Gjw7qkV/40vooWDCGxRWIPfeTj9a1/EXhLSNYQeZE9rPj5bi0bYw+o6MPqK4/wPo0vhzx3qemzSCVmthIkoGPMTIwSOx65FQxnsGnf8ex/3j/SrdU9O/49j/vH+lXKQgooooAKKKKACiiigAooooAKy9abbBu9EY/pWpWN4ibZp8rekLn9KAPL/AVhA7XerMoa4e4aFGP8CjBOPc5/SvTx0rz34fLnRFP968kP8q9DqkDCiikpgFIaWkNADTQKQ0Z+U/SgDOlY5PNed/Eyyt5tBmu5YlM8PKSY+Yfj6V6FIeTXD/Ehc+E7vPoP51SA1Ph1p8Nj4asVhjCmdFmkI6ux7mu9rk/B0fl6HpielvH/AOg11dQAtFFHFMBKQ0tIaAGmkc4if6UtMl4hb6UAZUp+U15T48sobjxLpiMmGuZFjkYdWBYD+teqy9DXnHiyMP4y0JSOs6/+hCm9gR6fo8Edtbx28KCOGJdqIowFFalZ+m9GrQpALSUUUAFIaWkNADahumxGtTVWvD8q0xGZf7ZrWSGZRJEwwyMMgj6V5j4D8P6be+JtWnuLZJYbKUJBE/KgknkjvgDivSrw/uX+lcb8PEVLvWnX+O5Uk/gaGhnqdidtuFQBEHRV4A/AVYzVWzP7gVYzUgOopu6jdTAdxRTd1G6kA7iim7qN1ADuKKbuo3UAPopm6jdQA+imbqXdQA8GjNM3UbqAH5ozTN1JuoAkzRmo91LuoAfmjNM3UbqAH5ozTN1G6gB+aMimbqTdQA/NGaZuo3UAPzS5qPdRuoAfmjNM3UbqAH5ozTN1G6gB+aM0zdRuoAfmjNM3UbqAH5ozUe6jdQBJmkzTN1G6gCTNGaj3Uu6gB5NYl0fnb61r7qx7o/vG+tNAeNeHodvxVul28LLcFeOn+c17NYcSKK8s0aAR/FO8OOd8x/MA16nZ/wCvX60LYGanelFJ3pRQIdRRRQMKKKKAKd+flWvP/G4DzaQSoO257+nFegah9xa4Lxjt36du/wCexx+lPoB18DEnJrVT/Vr9Kx4D936VsR/6lfpQxDqcKbThSAWiiigYlRzcwP8ASpKZL/qX+lAHAePU3eDtUPpFn9RUXw/QDwdpzAdVYn67jV3xom/whqw/6dmNVfh9j/hC7ADtvH/jxpoR3VocqfpU9V7TofpVgUAKKcKbThSAWiiigYlYt+MzOPetqsi+H+kN9RQgPIfhamNY1tMfdZcf99NXsNocbfrXk/w3XZ4m1xPb+UjV6tbHBH1prYGaZ60tB6mgUgHClpBRQAtFFFAFS96Ka5CIbfimjf39KI/J67C9+4v1rjydvxQsR/e06Qf+PVLGj0TTv+PY/wC8f6Vcqpp3/Hsf94/0q3SEFFFFABRRRQAUUUUAFFFFABWD4sbZol03pBJ/Kt6ua8cP5fhu8b/piwoA4z4eD/iQWh/vTyn/AMervq4b4dr/AMU5p59TK3/j7V3NNAxaSikqgCkopDQAGmscRsfalpkpxC1AGdIetcR8Smx4SuOOrKP1rtJDXDfE1v8AimNv96dP51SEdl4XXbplgvpbp/6CK6OsDw6Ntpaj0gQf+Oit+pGLQaKSgApKWmmgBDUc/EDVJUVycQH60AZcnevPfEvzeP8Aw+g/56g/rXoEh5rgNaG/4l6EOw5/nVPYD07Tf9Wxq9VLTf8AUE1eqQCiikoAKQ0ZpKACqd8eVHtVyqF+fnA9qAMq8P7h/wDdNcj8Oju/tVv+nkfyNdVfNi1lP+ya5L4a/wDHtqTH+K6H/oNN9APUbY4gWpdxqtC2IV+lSb6QE26jdUO6jdQBNuo3VDupN1AE++jdUO6k30AT7qN3vUO6k3UAT7qN1Q7qTdQBPuo3VBuo3UAT7qN1Qb6N1AE+73o31Bvo3UAT7qN9QbqN1AE++jfUG6jdQBPvo31Buo3UAT76N9QbqXdQBNvpN1Q7qXdQBLvo3VDupd1AE26k3VFuo3UAS7qN1RbqTdQBNuo3VDuo3UATb6N9Q7qN1AE26k3VFuo3UAS76XfUO6jdQBLupd1QbqN9AE26su6Pzv8AWrxf3rPuWBZiPWhAeeWa7fivOOxDn/yGK9HtD+/H1rz23A/4WhI3faw/8hivQbM/vx9aYM1u9KKQ9aKQh2aWm5pc0DFpKKKAKeof6ta888dPsisWHXzT/KvQtRP7ta848e/8e9kfSRu/tR0A7W2Pyx/QVtQ/6lawbRswwn1UfyrctzmBfxpsRLTqbS0gFpaTNFAxaZIP3bfSnZprnCN9KAON8Vru8Lasv/TrJ/Ks74ef8idbA9nk/wDQq1vEi7vD+pr62sn/AKCax/h6ceEoh6SP/OmhHdWff6VaqnYnn8KuUgFpaSigB1LTc0tAwrJv+Lk/UVrVk6j/AMfH5UIDyzwF8njPWV9Vf9Ja9RtzzXmXhBQnjnUh3Ky/+jBXpcB5prYGbB60U0MCAc9qXNIQ6lptKDQA6ikzRQMr3v8AqlPvXFXGV+KOjns1lKv612l6R5IGec1xWo/J8RvDrf3oZlqWNHpWnf8AHsf94/0q3VTTv+PY/wC8f6VbpCCiiigAooooAKKKKACiiigArkfiK/l+E7o+qY/UV11cR8Un2eEZcdWYD9aAMLwNPHa+F9LeThTGx/N2rrl1SzPS4T864TRD5fhPSk/6dgfzJNBbmmthnfC+tj0nT86X7XB/z2T/AL6rgN59aXefU0xHem7tx1mT/vqmNf2q9Z0/OuE3H1pdxoGdo+rWS/8ALdT9Krya1bS/uo2Jz1JGK5PdShiDkUCOndsjI6Vw3xKOdCgX1uF/rXSWl9kBHNcz8RCH0y0Uc5uB/I1V9AO0sbxbC1gdlyPLUYH0FX18RWR671/CufunxFGmfuoP5Vn7qkDtRr1gf+WpH1Wl/tuw/wCe36VxOaN1AHanXLAf8tf0qNtesR/Gx+grjt1AagZ1b+I7UfdjdqgOuLcuE2bF9zXN7qUMQcigR0jtkZBrh9RXd8TdJPYRn+TV0trebl2Ma56cb/iRp7ekT/8AoJqugHfWt/Bap5czbT1zira6pZt0uErlL2Tc5NUs1IHeC+tiOJ4/zpftluf+Wyf99VwYajefWgDuzeW3/PdP++qjbULRetwn51xG40ZoA7JtXsk/5bA/QVTkvY7tyyHiuZzUsU7QuCDTuBoaicWU/wDuH+Vct8NAf7Ju3KsN1ySCwxkbRXQahcB9LnYH/lmf5VhfDpTD4buWMzyoblvLLtnAwOPzzQ3sB3MepRINkjbcU7+1bX/nqK5yd9zmoM0gOq/ta1/56Un9rWv/AD0rl80ZoGdR/a9r/fpP7Ytf75/KuYzRmgR0/wDbFr/fP5Uf2za/3j+VczmjNAHS/wBs2v8AeP5Uf21a+rflXM5ozQB0v9t23q35Un9t2/8AtflXN0ZoA6T+27f0b8qT+3IPRvyrnM0uaBnRf25B/db8qT+3Yf7jVz2aTNAjof7dh/55tQddi/55vXP5NGaAN/8At6P/AJ5PR/b0f/PJvzrAzRmgDe/t5P8Ani350HXl/wCeJ/OsHNGaAN3+3l/54n86P7e/6Y/rWFmjNAG5/b3/AEx/Wk/t4/8APH9axM0ZoA2/7eb/AJ4j86P7ef8A54j86xM0ZoA2v7ef/nkv50n9vS/88l/OsbNFAGx/bsv/ADzSj+3Zv7iVkZozQBrf25P/AHEo/ty4/upWTmkzQBrf23cf3U/Kk/tu59E/KsvdSbqANX+2rn/Z/Kj+2rn/AGfyrL3CjcKANP8Atq59V/Kk/tm6/vL+VZu4Ubh60AaX9sXX98flSf2vdf3x+VZ24UbhQBo/2vdf3x+VH9q3X/PT9Kztwo3UAX21K6YYMhx7VZt7jzI9pPNZG6nxS7GyDQBjwDHxIkI7q2f+/YrtHn8iLIOGNcPbTrJ48aQNwdy/+OCunu593emBbXX7pDg7WHuKlXxHKOsKH6VgFhRvHrSA6IeJD3t1/wC+qX/hJP8Ap3H/AH1XOeYPWjePWgDoT4kftAn51E3iK5P3UQfhWHvHrShh60AbEepy3EuJmyD09q5fx0pa1tSq5xIxP5VpK+CDWX4pnL2lsV5YMwIyR29qHsB1tkw+zQsegjX+VMk1WeFz5bYHpVa3nA02HB6xr/KqTyZYnNNgay6/dDrsP1FPHiK5/uR/lWHvFJ5g9aQG7/wkdx/cT8qQ+Ibo9Ag/CsPzF9aPMHrQBrtrt4f4wPoKhbU7qU/PMxHpWd5g9aUOPWgDS1GT7Rod6O5t5B/46ayfAH/IsIv/AE1ap5LpY7O4DkBTEwOfoapeB5PJ8PbTwQ54z0ppgdTc3rW5AjOCO9RLr10Ou0/UVnXE29jzVfeB3pAbo8RTDrGlOHiOT/nitc/5g9aPMHrQB0B8RydoU/Omt4inPSNBWDvHrR5g9aANltfu26FV+gpYbppw3mNls5zWMHFTQz7GBoA47wnMo+JGqRB5NwE+UbkffHINelvN5MROfmNeZ6FFHb/EO9u9rAStKA7OCDk5wAOfzrubm4zTT0Gx/wDaNzG3ySsB6Zp41m8H/LX8xWWZB60nmqO9IRsf27eD+MflR/bt5/fX8qxvNX1o81fWgDXOt3p/5a4+gqNtVvH6zv8AgazfNX1oEi+tAGlDdytMGeRm+pqjrLY8c+FXH8RlX9KWOQbgc1S1a4VvFXhcAjekzkj0BwKTGj1fTf8Aj2P+8f6Vcqnpn/Hsf98/0q5SEFFFFABRRRQAUUUUAFFFFABXBfFfcfDSKBwZOa72sXxHa297ZC3u4t8D5DdsenPY0AeW6Hex3HhqzwcNBGIXX0K8Z/Gh7uNTy4/Orlx4G02OMpb394g5xgrnk5rAufh7aSuSdUv/AKbhRcZfOoQL1kX86YdVtgeZk/76rJb4Zaax+bUL4/8AAloHwv0nve3p/wCBL/hRzDsap1i0HWeP/vqm/wBt2QPNxH/30KzR8LtG/wCfu9P/AAJf8Kd/wrDRP+fi9/77X/CjmFY0Rrdj/wA/MX/fQpw1qx/5+of++xWcPhjof/Pe9/7+L/hUqfDDQSeZb3/v6v8AhRcdjTj1O1flLmIn2cVzvijVo754bSORZGifcxU52+31rdt/hZ4ZOPMkvj/23A/pWzB8OfCtuPk+2fjc/wD1qLgZ6axbXVikwlUHaAwJ5B96pya1Yx/euoh9WFal74E8PyAgG7/7/wD/ANasWX4c6FuPzXf/AH+H+FFxDW8TaWvW8h/77FRHxXpQ/wCXyL/vqnj4c6Dnrd/9/wD/AOtSj4caB/09/wDf/wD+tRzAQHxfpIP/AB+R/nSf8JhpP/P2n51Z/wCFceHvS7/8CP8A61OHw58Pf3bv/wACD/hRcCqPGGk/8/afnUi+LtJJ/wCPyMfjVgfDrw7/AHLr/wACD/hUqfDrw2TzFc/+BJ/wo5gsQp4o0ojK38A/4GKx7TXRJ4oi1IhjFHlOnJUjBP6119t8O/CQwXtp2+t01aaeDPCkKYjtHHH/AD8uaLgZV1qdpw/2iMqRkHd1qg+t2KdbmIf8CFaF94K8PSk4hlH0nasl/AWg5/1MhH/XZqOYLCnxFpy9buL/AL6pp8TaYP8Al8i/76pP+EC0D/n3k/7/ADUn/CA+Hs/8er/9/wBqOYLCnxTpQ63sP/fQpV8UaU3/AC+wn/gQpP8AhAfDv/Po/wD3+al/4QLw7/z5n/v83+NHMFiQeJNL/wCf2Hn/AGhUqa/pj8C9g/77FVx4D8OZ/wCPL/yK3+NWYfAXhgkb7EH/ALav/jRzAVNU161hsnVLlHZwVVVbJNP8F30UWlvYOyxymQyKDxvyBn8eK6Cz8E+DoOf7LiJ95X/xqS+8M+HTDtt7NIiOm12/qaLjK7n5uSPzpm8d2X8xWLceEtKc/PDvHvI3+NVj4O0XPNmD/wBtG/xo5hWOga4hT700S/VxUbahZqfmvLcfWVf8awv+EL0I9bBD9Xb/ABo/4QvQf+gdH/303+NHMFjZbWNMX72o2g/7br/jUZ17SR11Oz/7/r/jWaPBmg/9A6L82/xpf+EN0L/oGw/m3+NHMOxfPiLRh11Wz/7+imHxPog/5itp/wB/BVQeDtCH/MNh/Nv8ad/wiGhf9A2H/wAe/wAaOYLEx8V6EOuq234NmmHxhoA/5ikP4Bj/AEpB4S0Mf8w2D9f8aUeE9E/6Btv+R/xo5hWGHxp4fH/MST8Eb/CmnxtoHa/z/wBsn/wqf/hFdE/6Btt/3yf8aUeFtEH/ADDbb/vijmCxVPjjQB/y+Mf+2Tf4U0+OtBH/AC8yn/ti1Xf+EX0T/oG2v/fFO/4RjRP+gZa/9+6OYdjPPjvQv+e83/flqafHuidpJz/2xNaY8M6J/wBAy1/79Uo8NaJ20y1/79Ci4WMk+P8ARR3uT/2xNNPxB0b0uv8Av1/9etn/AIRvRf8AoGWn/fkU4eHdF/6Btp/35FFxWMM/ELSP7l3/AN+h/jSH4haTn/V3f/fsf41vDw9o3/QNtP8AvyKX/hH9Gx/yDbT/AL8rRcdjnz8Q9JH/ACyu/wDvgf40h+Imlf8APG7/AO+B/jXRf8I/o3/QNtP+/C0v9gaN/wBA20/78LRcLHN/8LF0v/n3u/8Avlf8aQ/EXTe1tdH8F/xrphoOjf8AQMtP+/C/4U7+w9H/AOgbaf8Afhf8KLisct/wsXT/APn1uf8Ax3/Gmn4i2H/Ppcn/AL5/xrrP7E0j/oG2n/fhf8KUaLpH/QOtP+/C/wCFFwscj/wsay/58rj/AL6X/GkPxGtAf+PKf/vpf8a7D+x9J/6B1p/34X/CnDSdKH/MPtf+/C/4UXHY4w/Ee27WMv8A38Wmn4j2/wDz4yf9/FrthpWlf9A+1/78L/hSjTNLB/48Lb/vwv8AhSuKxw//AAseL/nwf/v6KT/hY8f/AD4N/wB/RXeDTtMH/Llb/wDfhf8AClFhpw6WcH/flf8ACi47HAn4jr2sD/39FNPxHHaw/wDIor0L7HYDpaQf9+l/wpfstl/z6w/9+l/wouB52fiMe1gP+/w/wpv/AAsZ/wDnxX/v7/8AWr0f7PaAcW0X/ftf8KUQ2oH+oj/CNf8ACi4rHm//AAsaTtYr/wB/f/rUh+Is2f8AjxT/AL+f/Wr0sR2w6Qp/3wP8KXbAP+WS/wDfIouFjzI/ESfH/Hin/fZ/wpD8Q7o9LKP/AL7P+FeoYh/55j8hR+6H8H6Ci4Hlx+IV6ellH+Z/wpjfEDU/4LKH8d1eq7o/7lLvQfwmi4WPJ/8AhPdYPSyg/J6T/hOdbPSzh/75evWvMX+6fzpRKvofzp3Cx5UnjLW262qfhG1XIPEet3Pyi2Zc91hYmvTUnAPQ/nVuG/KHgN+dK4Hm9tb30BjvFt7lplO75oG5p974rvkOP7GvQR6o2P5V6iNYYDo3/fVQTakZOob/AL6NFwPIX8Xaln5dJuP++G/wqI+LNXPTSp/+/b/4V6q84J+6fzqIyj0P50XA8u/4SvWf+gTcf9+3/wAKB4q1r/oEXOP+ub/4V6kJcdj+dL53sfzouM8vHinWh/zB7k/9s3/wqRfFWsf9AW6/79P/AIV6Z53sfzoE3sfzouI8+h8T6qzDOh3p+kTf4VbK6tq0iyPpl5Gij5V8hv14rvI7soeh/Or0equq4wf++jQ2B54+o63plp5H9j3cyrwreS449OlYk/ifXsnbolwv+9DJ/hXr0mqswwQfzNUZbnefun86LjPI28TeJGPGlzD/ALd5P8KibxF4m/6B8wH/AF7P/hXrJk9v1pPN9v1ouI8kPiDxP2sZv/AZ/wDCga94nxk2Nx/4DP8A4V64JfY/nSiTHY/nRcZ5J/bvif8A58bj/wABn/wqRNd8T54sZ/8AwFf/AAr1fzfY/nT0nweh/Oi4jzJLjxHqUXlT2F2Iz94JbOM/pWlZS65oquItGvJoX5KeQ4IPscV6PDqLJ2P51OdWcjGD/wB9Gi4zya48T67uOPD94v8AvRP/APE1RfxN4hzxo1wP+2D/AOFeuTXe/Pyn86qNLk9D+dFxHlR8SeJD/wAwmf8ACCT/AApv/CR+Jf8AoEXH/fiT/CvVfM9j+dHmex/Oi4zyv/hIfEx/5hFx/wCA8n+FOHiDxP8A9Ae4/wDAeT/CvU/N9v1o832/Wi4Hmcev+JT10W5P/bB/8Kvwar4muFKLol0hPG7yHOP0rvlmwen61aivGTov60XA87j0PXEVZo9NvhKDuB8hs5qK91Dxmrbf7DuRjjItXr1NdVkA+7+tRy6gzjlR+dFwPGpNQ8ZknOmXY+lo1Qm88ZH/AJcb0fS1avX5Js/wiojJ/s0XA8j8/wAZn/lxvj/26mlEvjQ/8uN7/wCAxr1vzP8AZFHmH+6KLgeThvGvawvP/Aepoz41PWxu/wDvyP8AGvUvM/2RQJSP4RRcDzu2/wCE1Lgf2ddEe8A/xrqPDnhvWLrXrfUtWhkhSA7yZsAsR0VQDXQpcMp4UVraZ9svpQsUY2A/M5HAouB02m/8ex/3z/SrlMjjWKNUUYAFPpkhRRRQAUUUUAFFFFABRRRQAUjIrqVZQynggjg0tFAGRL4c0+Vi22RM9lfioj4U0495v++63KKLDuYX/CJ6b/02/wC+6P8AhE9N9Zv++63aKLBcwv8AhE9N9Zv++6P+ET031m/77rdoosFzC/4RPTfWb/vulHhXTh/z2/77rcoosF2Yo8MaeO83/fdO/wCEasPWb/vutiiiwXMU+F9PPUzf9900+FNOP/Pb/vutyiiwXML/AIRPTf8Apt/33S/8Inpv/Tb/AL7rcoosK5h/8Ippv/Tb/vuj/hFNN/6bf991uUUWC5h/8Ippv/Tb/vulHhXTh3m/77rboosFzGHhjTx3m/77o/4Rmw9Zv++62aKLBcxD4W04/wDPb/vumnwlpp/57f8AfdbtFFguYX/CJaZ/02/77o/4RLTP+m3/AH3W7RRYLmF/wiWmf9Nv++6T/hEdM/6bf991vUUBcwf+ER0z/pt/33Th4U00dPO/77rcooC5ijwxp4/57f8AfdB8L6eevnf991tUUBcwG8IaY3Xzv++6b/whulf9N/8Av5/9auhoosFznv8AhDdK/wCm/wD33/8AWpf+EN0r/pv/AN9//WroKKLDuc//AMIbpf8A03/77o/4Q7S/+m//AH3XQUUWC5z/APwh2l/9N/8Avuj/AIQ7S/8Apt/33XQUUWFc5/8A4Q7S/wDpv/33R/wh2l/9N/8AvuugoosFzn/+EO0v/pt/33R/wh2l/wDTb/vuugooC5gf8Ifpf/Tb/vuj/hD9M/6bf991v0UWC5gf8Ihpn/Tb/vuj/hENM/6bf991v0UWC5gf8Ihpn/Tb/vuj/hENM/6bf991v0UBcwP+EQ0z/pt/33R/wiGmf9Nv++636KAMD/hENM/6bf8AfdL/AMIhpn/Tb/vut6igDB/4RDTP+m3/AH3R/wAIjpn/AE2/77reoosFzB/4RHTP+m3/AH3R/wAIjpn/AE2/77reooAwf+ER0z/pt/33R/wiWmf9Nv8Avut6igLmF/wiWmf9Nv8Avuj/AIRLTP8Apt/33W7RRYDC/wCES0z/AKbf990f8Ilpv/Tb/vut2iiwXML/AIRPTf8Apt/33R/wiem/9Nv++63aKLAYX/CJ6b/02/77o/4RPTf+m3/fdbtFAGF/wiem/wDTb/vul/4RPTf+m3/fdblFAXMP/hE9N/6bf990f8Inpv8A02/77rcooC5h/wDCKab/ANNv++6P+EU03/pt/wB91uUUAYf/AAimm/8ATb/vuj/hFdO/6bf991uUUAYn/CLacP8Ant/33Sjwvp4/56/991tUUAY3/CM2H/TX/vuj/hGdP/6a/wDfdbNFFgMU+F9PP/Pb/vuk/wCEW07/AKbf991t0UAYn/CLad/02/77o/4RbTv+m3/fdbdFAXMT/hFtO/6bf990f8Itp3/Tb/vutuigDF/4RfT/APpr/wB90o8M2A/56/8AfdbNFAGN/wAIzYH/AJ6/990h8L6ef+ev/fdbVFAGJ/wiunf9Nv8Avuj/AIRXTv8Apt/33W3RQBif8Itp3/Tb/vuj/hFtO/6bf991t0UAYn/CLad/02/77pf+EX08f89f++62qKLBcxv+EY08f89f++6X/hGbD/pr/wB91sUUAY3/AAjGnn/nr/33Tf8AhFtO/wCm3/fdbdFFgMT/AIRXTv8Apt/33R/wiunf9Nv++626KAMT/hFtO/6bf990f8Itp3/TX/vutuigDE/4RbTv+m3/AH3S/wDCMaf/ANNv++62qKAMf/hGrD/pr/33Sf8ACM2B/wCev/fdbNFAGKfC+nn/AJ6/990n/CLad/02/wC+626KAMT/AIRbTv8Apt/33R/wi2nf9Nf++626KAMT/hFtO/6a/wDfdH/CLad/01/77rbooAxh4Y08EHEpx2L1rRRRwRiOJAiL0AFPooAKKKKACiiigAooooAKKKKACiiigAooooAKKKKACiiigAooooAKKKKACiiigAooooAKKKKACiiigAooooAKKKKACiiigAooooAKKKKACiiigAooooAKKKKACiiigAooooAKKKKACiiigAooooAKKKKACiiigAooooAKKKKACiiigAooooAKKKKACiiigAooooAKKKKACiiigAooooAKKKKACiiigAooooAKKKKACiiigAooooAKKKKACiiigAooooAKKKKACiiigAooooAKKKKACiiigAooooAKKKKACiiigAooooAKKKKACiiigAooooAKKKKACiiigAooooAKKKKACiiigAooooAKKKKACiiigAooooAKKKKACiiigAooooAKKKKACiiigAooooAKKKKACiiigAooooAKKKKACiiigAooooAKKKKACiiigAooooAKKKKACiiigAooooAKKKKACiiigAooooAKKKKACiiigAooooAKKKKACiiigAooooAKKKKACiiigAooooAKKKKACiiigAooooAKKKKACiiigAooooAKKKKACiiigAooooAKKKKACiiigAooooAKKKKACiiigAooooAKKKKACiiigAooooAKKKKACiiigAooooAKKKKACiiigAooooAKKKKACiiigAooooAKKKKACiiigAooooAKKKKACiiigAooooAKKKKACiiigAooooAKKKKACiiigAooooAKKKKACiiigAooooAKKKKACiiigAooooAKKKKACiiigAooooAKKKKACiiigAooooAKKKKACiiigAooooAKKKKACiiigAooooAKKKKACiiigAooooAKKKKACiiigAooooAKKKKACiiigAooooAKKKKACiiigAooooAKKKKACiiigAooooAKKKKACiiigAooooAKKKKACiiigAooooAKKKKACiiigAooooAKKKKACiiigAooooAKKKKACiiigAooooAKKKKACiiigAooooAKKKKACiiigAooooAKKKKACiiigAooooAKKKKACiiigAooooAKKKKACiiigAooooAKKKKACiiigAooooAKKKKACiiigAooooAKKKKACiiigAooooAKKKKACiiigAooooAKKKKACiiigAooooAKKKKACiiigAooooAKKKKACiiigAooooAKKKKACiiigAooooAKKKKACiiigAooooAKKKKACiiigAooooAKKKKACiiigAooooAKKKKACiiigAooooAKKKKACiiigAooooAKKKKACiiigAooooAKKKKACiiigAooooAKKKKACiiigAooooAKKKKACiiigAooooAKKKKACiiigAooooAKKKKACiiigAooooAKKKKACiiigAooooAKKKKACiiigAooooAKKKKACiiigAooooAKKKKACiiigAooooAKKKKACiiigAooooAKKKKACiiigAooooAKKKKACiiigAooooAKKKKACiiigAooooAKKKKACiiigAooooAKKKKACiiigAooooAKKKKACiiigAooooAKKKKACiiigAooooAKKKKACiiigAooooAKKKKACiiigAooooAKKKKACiiigAooooAKKKKACiiigAooooAKKKKACiiigAooooAKKKKACiiigAooooAKKKKACiiigAooooAKKKKACiiigAooooAKKKKACiiigAooooAKKKKACiiigAooooAKKKKACiiigAooooAKKKKACiiigAooooAKKKKACiiigAooooAKKKKACiiigAooooAKKKKACiiigAooooAKKKKACiiigAooooAKKKKACiiigAooooAKKKKACiiigAooooAKKKKACiiigAooooAKKKKACiiigAooooAKKKKACiiigAooooAKKKKACiiigAooooAKKKKACiiigAooooAKKKKACiiigAooooAKKKKACiiigAooooAKKKKACiiigAooooAKKKKACiiigAooooAKKKKACiiigAooooAKKKKACiiigAooooAKKKKACiiigAooooAKKKKACiiigAooooAKKKKACiiigAooooAKKKKACiiigAooooAKKKKACiiigAooooAKKKKACiiigAooooAKKKKACiiigAooooAKKKKACiiigAooooAKKKKACiiigAooooAKKKKACiiigAooooAKKKKACiiigAooooAKKKKACiiigAooooAKKKKACiiigAooooAKKKKACiiigAooooAKKKKACiiigAooooAKKKKACiiigAooooAKKKKACiiigAooooAKKKKACiiigAooooAKKKKACiiigAooooAKKKKACiiigAooooAKKKKACiiigAooooAKKKKACiiigAooooAKKKKACiiigAooooAKKKKACiiigAooooAKKKKACiiigAooooAKKKKACiiigAooooAKKKKACiiigAooooAKKKKACiiigAooooAKKKKACiiigAooooAKKKKACiiigAooooAKKKKACiiigAooooAKKKKACiiigAooooAKKKKACiiigAooooAKKKKACiiigAooooAKKKKACiiigAooooAKKKKACiiigAooooAKKKKACiiigAooooAKKKKACiiigAooooAKKKKACiiigAooooAKKKKACiiigAooooAKKKKACiiigAooooAKKKKACiiigAooooAKKKKACiiigAooooAKKKKACiiigAooooAKKKKACiiigAooooAKKKKACiiigAooooAKKKKACiiigAooooAKKKKACiiigAooooAKKKKACiiigAooooAKKKKACiiigAooooAKKKKACiiigAooooAKKKKACiiigAooooAKKKKACiiigAooooAKKKKACiiigAooooAKKKKACiiigAooooAKKKKACiiigAooooAKKKKACiiigAooooAKKKKACiiigAooooAKKKKACiiigAooooAKKKKACiiigAooooAKKKKACiiigAooooAKKKKACiiigAooooAKKKKACiiigAooooAKKKKACiiigAooooAKKKKACiiigAooooAKKKKACiiigAooooAKKKKACiiigAooooAKKKKACiiigAooooAKKKKACiiigAooooAKKKKACiiigAooooAKKKKACiiigAooooAKKKKACiiigAooooAKKKKACiiigAooooAKKKKACiiigAooooAKKKKACiiigAooooAKKKKACiiigAooooAKKKKACiiigAooooAKKKKACiiigAooooAKKKKACiiigAooooAKKKKACiiigAooooAKKKKACiiigAooooAKKKKACiiigAooooAKKKKACiiigAooooAKKKKACiiigAooooAKKKKACiiigAooooAKKKKACiiigAooooAKKKKACiiigAooooAKKKKACiiigAooooAKKKKACiiigAooooAKKKKACiiigAooooAKKKKACiiigAooooAKKKKACiiigAooooAKKKKACiiigAooooAKKKKACiiigAooooAKKKKACiiigAooooAKKKKACiiigAooooAKKKKACiiigAooooAKKKKACiiigAooooAKKKKACiiigAooooAKKKKACiiigAooooAKKKKACiiigAooooAKKKKACiiigAooooAKKKKACiiigAooooAKKKKACiiigAooooAKKKKACiiigAooooAKKKKACiiigAooooAKKKKACiiigAooooAKKKKACiiigAooooAKKKKACiiigAooooAKKKKACiiigAooooAKKKKACiiigAooooAKKKKACiiigAooooAKKKKACiiigAooooAKKKKACiiigAooooAKKKKACiiigAooooAKKKKACiiigAooooAKKKKACiiigAooooAKKKKACiiigAooooAKKKKACiiigAooooAKKKKACiiigAooooAKKKKACiiigAooooAKKKKACiiigAooooAKKKKACiiigAooooAKKKKACiiigAooooAKKKKACiiigAooooAKKKKACiiigAooooAKKKKACiiigAooooAKKKKACiiigAooooAKKKKACiiigAooooAKKKKACiiigAooooAKKKKACiiigAooooAKKKKACiiigAooooAKKKKACiiigAooooAKKKKACiiigAooooAKKKKACiiigAooooAKKKKACiiigAooooAKKKKACiiigAooooAKKKKACiiigAooooAKKKKACiiigAooooAKKKKACiiigAooooAKKKKACiiigAooooAKKKKACiiigAooooAKKKKACiiigAooooAKKKKACiiigAooooAKKKKACiiigAooooAKKKKACiiigAooooAKKKKACiiigAooooAKKKKACiiigAooooAKKKKACiiigAooooAKKKKACiiigAooooAKKKKACiiigAooooAKKKKACiiigAooooAKKKKACiiigAooooAKKKKACiiigAooooAKKKKACiiigAooooAKKKKACiiigAooooAKKKKACiiigAooooAKKKKACiiigAooooAKKKKACiiigAooooAKKKKACiiigAooooAKKKKACiiigAooooAKKKKACiiigAooooAKKKKACiiigAooooAKKKKACiiigAooooAKKKKACiiigAooooAKKKKACiiigAooooAKKKKACiiigAooooAKKKKACiiigAooooAKKKKACiiigAooooAKKKKACiiigAooooAKKKKACiiigAooooAKKKKACiiigAooooAKKKKACiiigAooooAKKKKACiiigAooooAKKKKACiiigAooooAKKKKACiiigAooooAKKKKACiiigAooooAKKKKACiiigAooooAKKKKACiiigAooooAKKKKACiiigAooooAKKKKACiiigAooooAKKKKACiiigAooooAKKKKACiiigAooooAKKKKACiiigAooooAKKKKACiiigAooooAKKKKACiiigAooooAKKKKACiiigAooooAKKKKACiiigAooooAKKKKACiiigAooooAKKKKACiiigAooooAKKKKACiiigAooooAKKKKACiiigAooooAKKKKACiiigAooooAKKKKACiiigAooooAKKKKACiiigAooooAKKKKACiiigAooooAKKKKACiiigAooooAKKKKACiiigAooooAKKKKACiiigAooooAKKKKACiiigAooooAKKKKACiiigAooooAKKKKACiiigAooooAKKKKACiiigAooooAKKKKACiiigAooooAKKKKACiiigAooooAKKKKACiiigAooooAKKKKACiiigAooooAKKKKACiiigAooooAKKKKACiiigAooooAKKKKACiiigAooooAKKKKACiiigAooooAKKKKACiiigAooooAKKKKACiiigAooooAKKKKACiiigAooooAKKKKACiiigAooooAKKKKACiiigAooooAKKKKACiiigAooooAKKKKACiiigAooooAKKKKACiiigAooooAKKKKACiiigAooooAKKKKACiiigAooooAKKKKACiiigAooooAKKKKACiiigAooooAKKKKACiiigAooooAKKKKACiiigAooooAKKKKACiiigAooooAKKKKACiiigAooooAKKKKACiiigAooooAKKKKACiiigAooooAKKKKACiiigAooooAKKKKACiiigAooooAKKKKACiiigAooooAKKKKACiiigAooooAKKKKACiiigAooooAKKKKACiiigAooooAKKKKACiiigAooooAKKKKACiiigAooooAKKKKACiiigAooooAKKKKACiiigAooooAKKKKACiiigAooooAKKKKACiiigAooooAKKKKACiiigAooooAKKKKACiiigAooooAKKKKACiiigAooooAKKKKACiiigAooooAKKKKACiiigAooooAKKKKACiiigAooooAKKKKACiiigAooooAKKKKACiiigAooooAKKKKACiiigAooooAKKKKACiiigAooooAKKKKACiiigAooooAKKKKACiiigAooooAKKKKACiiigAooooAKKKKACiiigAooooAKKKKACiiigAooooAKKKKACiiigAooooAKKKKACiiigAooooAKKKKACiiigAooooAKKKKACiiigAooooAKKKKACiiigAooooAKKKKACiiigAooooAKKKKACiiigAooooAKKKKACiiigAooooAKKKKACiiigAooooAKKKKACiiigAooooAKKKKACiiigAooooAKKKKACiiigAooooAKKKKACiiigAooooAKKKKACiiigAooooAKKKKACiiigAooooAKKKKACiiigAooooAKKKKACiiigAooooAKKKKACiiigAooooAKKKKACiiigAooooAKKKKACiiigAooooAKKKKACiiigAooooAKKKKACiiigAooooAKKKKACiiigAooooAKKKKACiiigAooooAKKKKACiiigAooooAKKKKACiiigAooooAKKKKACiiigAooooAKKKKACiiigAooooAKKKKACiiigAooooAKKKKACiiigAooooAKKKKACiiigAooooAKKKKACiiigAooooAKKKKACiiigAooooAKKKKACiiigAooooAKKKKACiiigAooooAKKKKACiiigAooooAKKKKACiiigAooooAKKKKACiiigAooooAKKKKACiiigAooooAKKKKACiiigAooooAKKKKACiiigAooooAKKKKACiiigAooooAKKKKACiiigAooooAKKKKACiiigAooooAKKKKACiiigAooooAKKKKACiiigAooooAKKKKACiiigAooooAKKKKACiiigAooooAKKKKACiiigAooooAKKKKACiiigAooooAKKKKACiiigAooooAKKKKACiiigAooooAKKKKACiiigAooooAKKKKACiiigAooooAKKKKACiiigAooooAKKKKACiiigAooooAKKKKACiiigAooooAKKKKACiiigAooooAKKKKACiiigAooooAKKKKACiiigAooooAKKKKACiiigAooooAKKKKACiiigAooooAKKKKACiiigAooooAKKKKACiiigAooooAKKKKACiiigAooooAKKKKACiiigAooooAKKKKACiiigAooooAKKKKACiiigAooooAKKKKACiiigAooooAKKKKACiiigAooooAKKKKACiiigAooooAKKKKACiiigAooooAKKKKACiiigAooooAKKKKACiiigAooooAKKKKACiiigAooooAKKKKACiiigAooooAKKKKACiiigAooooAKKKKACiiigAooooAKKKKACiiigAooooAKKKKACiiigAooooA//9k=;clipPath=inset(29.33% 1.33% 32.33% 1.33%);" vertex="1" parent="1">
          <mxGeometry x="79" y="111.08" width="1000" height="393.83561643835617" as="geometry" />
        </mxCell>
        <mxCell id="ZUcRJ3GtSAAeoCR4MI1E-2" value="" style="shape=flexArrow;endArrow=classic;html=1;rounded=0;fillColor=#60a917;strokeColor=#2D7600;" edge="1" parent="1">
          <mxGeometry width="50" height="50" relative="1" as="geometry">
            <mxPoint x="741" y="300" as="sourcePoint" />
            <mxPoint x="781" y="300" as="targetPoint" />
          </mxGeometry>
        </mxCell>
        <mxCell id="ZUcRJ3GtSAAeoCR4MI1E-3" value="" style="shape=flexArrow;endArrow=classic;html=1;rounded=0;fillColor=#60a917;strokeColor=#2D7600;" edge="1" parent="1">
          <mxGeometry width="50" height="50" relative="1" as="geometry">
            <mxPoint x="594" y="300" as="sourcePoint" />
            <mxPoint x="554" y="300" as="targetPoint" />
          </mxGeometry>
        </mxCell>
        <mxCell id="ZUcRJ3GtSAAeoCR4MI1E-4" value="" style="shape=flexArrow;endArrow=classic;html=1;rounded=0;fillColor=#60a917;strokeColor=#2D7600;" edge="1" parent="1">
          <mxGeometry width="50" height="50" relative="1" as="geometry">
            <mxPoint x="699" y="313" as="sourcePoint" />
            <mxPoint x="699" y="283" as="targetPoint" />
          </mxGeometry>
        </mxCell>
        <mxCell id="ZUcRJ3GtSAAeoCR4MI1E-5" value="" style="shape=flexArrow;endArrow=classic;html=1;rounded=0;fillColor=#60a917;strokeColor=#2D7600;" edge="1" parent="1">
          <mxGeometry width="50" height="50" relative="1" as="geometry">
            <mxPoint x="637" y="284" as="sourcePoint" />
            <mxPoint x="637" y="314" as="targetPoint" />
          </mxGeometry>
        </mxCell>
        <mxCell id="ZUcRJ3GtSAAeoCR4MI1E-7" value="`" style="text;html=1;strokeColor=#2D7600;fillColor=#60a917;align=center;verticalAlign=middle;whiteSpace=wrap;rounded=0;fontColor=#ffffff;fontSize=33;" vertex="1" parent="1">
          <mxGeometry x="800" y="284" width="40" height="30" as="geometry" />
        </mxCell>
        <mxCell id="ZUcRJ3GtSAAeoCR4MI1E-8" value="~" style="text;html=1;strokeColor=#2D7600;fillColor=#60a917;align=center;verticalAlign=middle;whiteSpace=wrap;rounded=0;fontColor=#ffffff;fontSize=33;" vertex="1" parent="1">
          <mxGeometry x="862" y="284" width="40" height="30" as="geometry" />
        </mxCell>
        <mxCell id="ZUcRJ3GtSAAeoCR4MI1E-18" value="hold" style="text;html=1;strokeColor=#2D7600;fillColor=#60a917;align=center;verticalAlign=middle;whiteSpace=wrap;rounded=0;fontColor=#ffffff;fontSize=20;" vertex="1" parent="1">
          <mxGeometry x="140" y="284" width="70" height="30" as="geometry" />
        </mxCell>
      </root>
    </mxGraphModel>
  </diagram>
</mxfile>
